<mxfile host="65bd71144e">
    <diagram id="k8z3TrdIpHDNb7jA-V7d" name="第 1 页">
        <mxGraphModel dx="3003" dy="1749" grid="1" gridSize="10" guides="1" tooltips="1" connect="1" arrows="1" fold="1" page="1" pageScale="1" pageWidth="827" pageHeight="1169" math="0" shadow="0">
            <root>
                <mxCell id="0"/>
                <mxCell id="1" parent="0"/>
                <mxCell id="2" value="&lt;div style=&quot;text-align: left;&quot;&gt;&lt;span style=&quot;font-size: 24px;&quot;&gt;&amp;nbsp; &amp;nbsp; 1、&lt;/span&gt;&lt;span style=&quot;font-size: 24px;&quot;&gt;具体来说，Babel.js 首先将输入的新版本 JavaScript 代码解析成抽象语法树（AST），然后对 AST 进行遍历和修改，将其中的新特性转换成等效的旧版语法。&lt;/span&gt;&lt;/div&gt;&lt;div style=&quot;text-align: left;&quot;&gt;&lt;span style=&quot;font-size: 24px;&quot;&gt;&amp;nbsp; &amp;nbsp; 例如，将箭头函数转换为函数表达式，使用 let 或 const 声明的变量转换为使用 var 声明的变量，以及将模板字符串转换为字符串连接&lt;/span&gt;&lt;span style=&quot;font-size: 24px;&quot;&gt;。&lt;/span&gt;&lt;/div&gt;&lt;div style=&quot;text-align: left;&quot;&gt;&lt;span style=&quot;font-size: 24px;&quot;&gt;&amp;nbsp; &amp;nbsp; 2、&lt;/span&gt;&lt;span style=&quot;font-size: 24px;&quot;&gt;最终，Babel.js 将转换后的代码输出，并可使用其他工具将其打包、压缩、优化等，以便在生产环境中使用。&lt;/span&gt;&lt;/div&gt;" style="text;strokeColor=none;align=center;fillColor=none;html=1;verticalAlign=middle;whiteSpace=wrap;rounded=0;fontSize=14;fontColor=#FF3333;labelBackgroundColor=#FFFF00;" parent="1" vertex="1">
                    <mxGeometry x="980" y="310" width="641" height="230" as="geometry"/>
                </mxCell>
                <mxCell id="3" value="" style="shape=image;verticalLabelPosition=bottom;labelBackgroundColor=default;verticalAlign=top;aspect=fixed;imageAspect=0;image=data:image/png,iVBORw0KGgoAAAANSUhEUgAAA7YAAAKvCAYAAABeVFN/AAAAAXNSR0IArs4c6QAAAARnQU1BAACxjwv8YQUAAAAJcEhZcwAADsMAAA7DAcdvqGQAAOQHSURBVHhe7P3br+XLltcH8if0g/+Kbqlltdp/QKsRT/3idvHa2C2rJHeXZHc9JN0pLKqkPNgWyEVaKJHqFJuHIw5JquBQsEkgAUNSdjm1DVXsbTa3zaW4FbcqqMP9Pvs3LhG/MUaMEb+Yl5WZM9d3SR/lmvGLy7hFxBhrzrXyV/yf/6P/ywkAAAAAAAAAALhXUNgCAAAAAAAAALhrUNgCAAAAAAAAALhrUNgCAAAAAAAAALhrUNgCAAAAAAAAALhrUNgCAAAAAAAAALhrUNgCAAAAAAAAALhrUNgCAAAAAAAAALhrUNgCAAAAAAAAALhrUNgCAAAAAAAAALhrUNgCAAAAAAAAALhrUNgCAAAAAAAAALhrUNgCAAAAAAAAALhrUNgCAAAAAAAAALhrUNgCAAAAAAAAALhrUNgCAAAAAAAAALhrUNgCAAAAAAAAALhrUNgCAAAAAAAAALhrUNgCAAAAAAAAALhrUNgGfvRH/7vTP/xHv3x6X1+0Fq2ZyQIAAAAAAAAA4BgUtoH3WdS2L1ozkwUAAAAAAAAAwDEobAMf6iuTBQAAAAAAAADAMShsA+/r69//+3/PtK9MFgAAAAAAAAAAx6CwDbyvr3/37/7d6d/+23/bi9tMFgAAAAAAAD4l/q+/8j8+/Wf/z/8qfQbANaCwDbyvLypq/82/+TfvtbD9HT/3/dMv/uLXp9+RPDuP33z6oz+/zfXzP336b9LnZ/Ldrze5vn/62e8mzyzU71ZrAgAAAACA9woVtD/5k/8j89t+2+9J+wBwKShsAw/99U//6T89/dW/+ldPf+7P/bnTX/yLf/H0d//u3+V3bzNZbs3dF7b/0e8+/ezW7xd/7ncnz5Tf8NOnn6c+gZ//Yz8tY0u8XcRW57LNka7/C6c/+t1cLsux/gAAAAAAHx//1f/nR3rBarHFaytqqS+9a0vf451bcEtQ2AaoyKQvekeVvv7ZP/tnp7/0l/7S6X/73/6305//83/+9Lf/9t/md1qpX+vbvtq7r/QvPaN/G/T1i7/4i6d3796d/uf/+X/m+Yg/9af+1Okv/+W/nMpya+6lsL2sqNxwBa8UwXuxSK+3AvM3tNcGXn8sbH/+j/1m30/bp4V1J6zHBe++xn/zx37BzCP2RGELAAAAgHukFaxUqFqogKXn9L0tZFsh3J4DcAtQ2AZaEUqF7S//8i+f/sSf+BOn/+V/+V/4HVYqcL/66isuRP/5P//n3Odf/st/efr7f//vn/76X//r/A7sX/gLf4H7/bW/9te4nZ7TnP/oH/0jLmJ/7ud+juf91//6X3OB/Eu/9Eunb775JpXl1txTYZsVlTN8oUjMC1u3xkFhK3Y7ItoVhS0AAAAAPn1a0Zo9I2JRG18DcCtQ2AaoCKWClQrXL774gotRKkTbO7jf//73+Z3W9lFieveV3oWlfvSOLhW29C/1oSL2yy+/5CKX/qW2f/Ev/kV/t7cVvDQmk+XW7IWtFH29KEsKVC68TB9faJrCNn70Nns3M/aJ65WFbV7wuaJUeejCNq7nSMbnha2xQQIKWwAAAADcG7PCFkUteJ+gsA1QsUlQMfp7f+/vPf2Nv/E3+jusrRil35Old26//vprfk7vzFKff/Wv/lWHClhqo9+h/YVf+IXT3/k7f4c/1kxfNAf1+dmf/Vl+R/jP/Jk/k8pya6hAkyLKFGGt4LJF4VaouUIuFJ69sKVxtkjVfm6szr+3Je/2DvNbYn95PS00mdsWtmK3GSuF7d4H79gCAAAA4FOgKmxR1IL3DQrbAH1RUfry5cvTt771rf6OLH1kmArS9kV9qDilNvvXjemrvSNLX9RO7/a2d3zbF717S/NSwUvvDmey3Bop0Eyx1eDCLmnvaHEZCrGxmGvv9Lb2WJQqcb1pYSvwvDzPUREoBW0sPH/2u9cVttNC2o3P1t/W5T8ehcIWAAAAAJ8WWWGLohZ8CFDYBqgApXdn6fdk6Xdf6d3Zv/JX/goTv6igpS8aQwWsLW5jIRu/qGCmd3PbO7yZLLdGCtuxGG3vquaFlSnUwrumQ8FK2KJ1eLdWietlhW14h3NntQgUufd+trANc9y0sG34Qrrp7Atez7FOAAAAAAAfF1lh+9t+2+85/fpf/2PueStq/+//yX+K/+oHPAgobAP01QrUVrD+g3/wD/hjx/SHoKitQV+2mKWv+Lr6oj9IRR9jbsVxJsutOSpsW/Em77q2gov6x0L2qLD9vhRpB8VcLxbTwvY399/f9UVlLFgrZoVteLZQ2EbZR1YK270P3rEFAAAAwKdAVtjSa/rLx+2vH9t3arP+ANwCFLaBVmjSvwR9TJjerf2zf/bPctFqaV/07m77K8n09bf+1t/iPxY1+6L/NuiP/JE/cvon/+Sf8DqZLLfmqLDlwiotJs8tbP07tocFW1bYGtw7pjynKRhLJoWtytXlHApbX2i69Tf2j0Vr/6QwHgrbgC9sAQAAAADuk1io0juy9Jr4bb/t97iiNusPwK1AYRuwhS39niz91WL668hUiFZf9BeR6XdwaQz9gai/9/f+3ul//V//163Y+UUuXKuvn/7pn+b/Joi+MllujRS2Y7El79BqYZYWmVIkDoVtUiTzGrHfUQHn1tS1LsLKUxe2LOPPfT0pPMei1Ba3e2HrC2CPn0NsHOUNoNAFAAAAwJ0RC1X6v2mpuLV9LChswUOBwjZgC1v6XVv6P2vpY8P0x6LaR5HbH4ai341t/amwJegvJFMb/XEo+qvH9EWv7UeYCWqjovn169f8fSbLrZHCdmN4t9G+I6mFZfiYrB9n2kwx1oo3V+gN82/QO6aJDHmBaMjmKlE9Gk1OnoMKzli8mtfUx8jXCv8/+htiYbs9T9/hJuz6vkgmeA4UsgAAAAC4c84tVFHYgocChW2gFar0LxWqP/VTP3X6Xb/rd/HHhv/oH/2j/E4s/c5t+6Lilv7I1B/+w3/49If+0B86vXnz5vQH/sAf4L+qTO/c/uk//af5d2njx5ipUKZ3c+k5FcCZLLdGCtuvT79DC8TGUJSF5z/7XS1kY2G7vf4d4Z3ItDgN89mi0T6fFbatKP/5P/bTpmAc3zHeP2Z8tE4obPtHnEW3ZpNuszbHxliUahFLbWb9WQGOwhYAAAAAnwLto8ezd2kt9EelUNiChwCFbYDepaWv9peRf/zHf/z0m3/zbz79pt/0m06/5bf8ltNv/I2/8fRbf+tv5f/nlvpQUUqFLxWx3//+95nPPvuM/5/bP/fn/hwXuvQuLr3zSwUw/UsfP/6rf/Wv8sebqej9nb/zd6ayAPOuZyxSN+SdVHo+viMakQLV9guFLRe9WwFr302mtr6ufQf2+2MR3gvj0E7Ewn7C4bvWAAAAAAAfEfTRYypUz6H9xWQAbgkK20ArbP/xP/7H/A7s7//9v5/frW3/3Q/9v7NU3NLv3f7Df/gP+R3dv/gX/yJ/T8UqPX/79i0Xs1TY/pk/82f43z/4B/9gn4v60x+j+pmf+ZnTH//jf/z0ne98J5XlUWLfcc3ekU3RojMpft27qeFZ/2i2svYRZwAAAAAAYGm/V0sfMz6C+mZzAHAtKGwD9EUfFaZCtn30+M//+T/fC14qYP/7//6/5z/8RP8PLf1/tPTuLf1OLRW1f/Nv/s3T7/29v5fH07uzVNRSwUvv4NI7wPT7ujQHzUcfY6Z/f/mXfzmVBQAAAAAAAADAMShsA/RFfySK3lml/7uW3lmljwxTsUtf9N/6PH/+nIteKkypYH337h2/C0v/xQ99NJkKW3pHl34Xl/7rH5qPoDmonQpe+h3b9vu89JXJAgAAAAAAAADgGBS2ASo26V3X3/N7fs+J/rseKlzpd2KpKKW/ZkzvsNLv2tIfi2oFKxW1f+Ev/AX+b3/oHVl655be6aV3YttfQaYvmoM+okzF8i/8wi/0d4HpK5MFAAAAAAAAAMAxKGwD9E7qn/yTf5J/N5benaWPGFPhSv/FD0HF6IsXL/h3Zul5ayeoWKWilb7o3Vr673yoqG0fOW7jf/7nf54LZlqDPs5MfTJZAAAAAAAAAAAcg8I28M/+2T/jopX+eFR75/Ynf/In+XdpqQilIrUVttTXFrb0seOf+Imf6O/kUhu9S0vfU0FL7wa3d3Dpv/qh/vTXlKlPJgsAAAAAAAAAgGNQ2AboY8f0X/RQIUv/0keK6fdi6Xdu6SPGVJzSf/dDfzE5vmNLr+kdW/r3n/7Tf9rfpSWoIKb29rHk9tVeZ7IAAAAAAAAAADgGhW2A/vsd+u986GPCv/RLv8QFKhW59A4tFaf0mv5f2z/xJ/4Ef2yZ3m2lLypeqeild2epgKV3ZOk5Fa6tDz1vtHaCxmayAAAAAAAAAAA4BoVt4Hf+zt/JH0Gmr/Zu6t/4G3/j9Pnnn59+1+/6XVzgUvFL797SFxWy3//+9/ljyfRFhWorXuNXa2/v4loyWQAAAAAAAAAAHIPCNvA3/+bf0jL0xB8lpndp6Y9A0V9Bpv+7lr6nd22poG1FKv2/tD/zMz/D/y0Q/SVkarNf9A4u/c4ujbMfRW5F7S/+4i+lsgAAAAAAAAAAOAaFbeC//q+/dfoH/+AXtfQ88Tuz9A4t/f+0VKC2d2KpILXvylKh+/btW/693J/6qZ86/b7f9/tO/9P/9D/x7+Z+73vf49/VpaLYFr2tqP2RH/1vU1kAAAAAAAAAAByDwhYAAAAAAAAAwF2DwhYAAAAAAAAAwF2DwhYAAAAAAAAAwF2DwhYAAAAAAAAAwF2DwhYAAAAAAAAAwF2DwhYAAAAAAAAAwF2DwhYAAAAAAAAAwF2DwhYAAAAAAAAAwF2DwhYAAAAAAAAAwF2DwhYAAAAAAAAAwF2DwhYAAAAAAAAAwF2DwhYAAAAAAAAAwF2DwhYAAAAAAAAAwF2DwhYAAAAAAAAAwF2DwhYAAAAAAAAAwF2DwhYAAAAAAAAAwF2DwhYAAAAAAAAAwF2DwhYAAAAAAAAAwF2DwhYAAAAAAAAAwF2DwhYAAAAAAAAAwF2DwhYAAAAAAAAAwF2DwhYAAAAAAAAAwF2DwhYAAAAAAAAAwF2DwhYAAAAAAAAAwF2DwhYAAAAAAAAAwF2DwhYAAAAAAAAAwF2DwhYAAAAAAAAAwF2DwhYAAAAAAAAAwF2DwhYAAAAAAAAAwF2DwhYAAAAAAAAAwF3zK/73/4f/0wkAAAAAAAAAALhXfsWv/FU/cAIAAAAAAAAAAO4VFLYAAAAAAAAAAO4aFLYAAAAAAAAAAO4aFLYAAAAAAAAAAO4aFLYAAAAAAAAAAO4aFLYAAAAAAAAAAO4aFLYAAAAAAAAAAO4aFLYAAAAAAAAAAO4aFLYAAAAAAAAAAO4aFLYAAAAAAAAAAO4aFLYAAAAAAAAAAO4aFLYAAAAAAAAAAO4aFLYAAAAAAAAAAO4aFLYAAAAAAAAAAO4aFLYAAAAAAAAAAO4aFLYAAAAAAAAAAO4aFLYAAAAAAAAAAO4aFLYAAAAAAAAAAO4aFLYAAAAAAAAAAO4aFLYAAAAAAAAAAO4aFLYAAAAAAAAAAO4aFLYAAAAAAAAAAO4aFLYAAAAAAAAAAO4aFLYAAAAAAAAAAO4aFLaB//C/+M9P/8G3f93pf/edX/9eoLVozUwWAAAAAAAAAADHoLANvM+itkFrZrIAAAAAAAAAADgGhW0gKzzfB5ksAAAAAAAAAACOQWEbyIrO90EmCwAAAAAAAACAY1DYBrKis+L/+L0fO/23X/7x00//3b92+h1/+edO/6+f+V7ab4VMFgAAAAAAAO6V/8d/+l+m7bfiP/5P/rPT//uHft0hDy0H+DhAYRvIis4MKmjb11//J/+Ii9v2PRW82ZgZmSwAAAAAAADcI1RQ/uRP/o+n3/7bf4q/z/pcw//wP3yH51+F5MjmAZ8OKGwDWdEZaUUtvUtr26mgtV9U5BLU3/bLyGQBAAAAALgtn51ef/3V6eXT7NkPnJ6/+eb07tWz9BkA50CFJBWf3/oNL/jfrM+l0Du1VKzO3olthTV9v9If3D8obANZ0Rmhr1jU/t/e/HYuYumrFbPtY8r0Rf/a/pFMlo8Zuvi+/Prt6Xny7GxevN3m+ub0+kXy7KOCkoFN7zefJc8MpM8Xn5+eZM90jmVdaa6j9QrYR+nYM2X4pHh2evnFZpfSP5dS2/TJq68eYL2PH9L7wyTH5Iv8bGJfFPspT+ZprroAcPA5dsGZaM6LmXyCxBmdl4e2nZ5DEdkX6ZxPPz+9W7XBpwbr/kBF3qXxcgtIrzI2JBbq+6HaE/UZ6EnGv7cYs7od723ej7zfjvx0ZLPAxPf1vX1/tKKyfVT41u+W2qK1Ivah76nN9gGfFihsA1nRSbTfp21f7ePG9K8tXrOPIdPv3tLX7J3bTJZbsx/SnuXD2PDwha0WIEHWlPdUNIjOxMFl+PQzlT23j/hh4RLXpErscmwPn3xNLu3VhNet/74Z9b1NcqnzXhgzHAPZ2GmSKglfKT+NNYlMtU891rcyf+wj6xVx8x72zJNNr8P40b1/GWpvjlNv+yo5nBWONMb7SGy3HneL/VXn3o9eqz+sfHkc7H5/8nRhnVU/JzZszGzmYL0WzrWHQM+qzE5XofOux4Dh4PwcY1T2sfTPz+/qbHj9Ij8DhMQW5KvKp5NYEHLZ9vvRk9pO90C3Da+55rNot8omjt5f9uho48J+ZtyTqWx23mPGs6aR2/Zeae/U0vcrRei5/H//f//dYbGMwvbxgcI2kBWdhP0dWvqiNnqXlr6ojb5vfen7+IekqKilfrbNkslya+QC8IdmuxRWD+SGXGKzy+8M4iXHnJEkvo8k3diOvz9cs8n/+SThCJRJznlUCUabq3o+JDoHidmDoetGeZ6/+dAXvvg0871LVDSej2h27T8IsfNOEj323xArvu8uz5hwrcXvKmqTRL8jzo+rURcmTcTzBJF1j3GuOB8u6CVyFAmxQn2G/abr98LUnGFWvpmsO/P1p/DclZ7NdrUdhrOZ4/7971G20yaPj4vNLjeL8QtJ77VGFp/iy95fx+d3YDY+g/qN93Sz2c7b08uhzUJzJLFg4jbKKWtMcgTat81HZ8ROPP+O9onvb88Qa8M1e452W0XnVp8ONPmq5zM7fqTQx32piGwf+20FJhW6DSpM47hzaPNkzxoobB8fKGwDWdHZiloqWOkjyO1jxVS8tu+J9u5t/EgyPWtFsC2ALZkst0YO5Xh4y2WaX541kqzd6LBNE4DjxLLz0AnMIJ/KNrlMc8TWh+OuLCh9gk6Yy9wmE4aYLDBXynEphwnRB0P9Hu0XCyuKl2lM2uTKtzm/cdxZOxTrt7gKyFw6Jj6/2Z7JdDnikjFEMS7aX+E4CnoOSbDx1b5v2pn4WfIuTeYD6u/Xt+uM+zFgZLDjBlnPwsTEdI7MpjTWJOLDeBkz6MTxelwc3Bb1x8V2ekDYHnmc574Vn7n+HNuJTU3MTNvCeS/3NlGfr4fxauODXicxwvpFWWawrWqZLPGuOtonvr+Nd6tH0OlMWAa268EciY92+Um2wteLtvkYaB87pndr7e/UUrstaon2+7d2/DnQeBS2IILCNhALzvYx4laQxsKWXtuPKbdC1rZRgdvmie/kNjJZbo0cvuHg1OIlXmT7QS3E53JB0mErl3Hvm11mukbZhw/umAAUyVMkuShuSbPDmJxUCVV1QaqdXH97ydo2O57GnXepjYlJWydbT4jJAqN+8/2Dv61sRSyNtprMsbHH1t5WorHT6LJ2WdrHwptcKouJmaVYDuvY57u9ZfzrN0cxWfthoO0NmpPWHOKNoHV9zO0yjWtxTN9sz5yhS2ccIz7IsHoVa7Gvs3ghu/j2PYkc28RmEi+8Rju3tH87C8b4bn1F1mjf3RdhTMOcYVa+TNZVaE2Jw7en11my3Mls2uJpjCs7ZtCJYzX0bzZsBLuk+zzOM5mjnyWLdmo+FMwabZ+Zj/TaGNh1Fd1ZhihXl0H72Gcbu41ljTEmCrsmpDFFOgQ7pDGk/WKcCiRD5nOLiYtog4Iuq9r5bGLcGJ2O9onvLzYWX9j4tt+fCdmA99k2L+25iSysf7B5k7/Ug222eB9+YKjQpMKxcVRA0ru51/ze7coatrDFH496HKCwDcSCsxWn7XUsbNu7s9SPsO/SElTgtj70lf0OLpHJcmv44AyHNx/68XLbDlJ3aeplZJMfSUoIc+C2S84ezrPEoPVJ5q+Sg5Thcr4NoqOxl+qyy5no8vTZ6Tnb2eg82MDAz6oLVeefXZQJJLdfSy/zV9tafAGPl+Q4ZiPV146N+if2INw8R3OY5PNA78E/1LbpyPPomjRPGldmveVYzvTjfjKuJyYaz0eQXF1XIuqbzON1OYDGd1k1YT8zls6hTMwWYB8MY2OyKfYfbGB84NoT0jifPlO7bWTjnP8yNvu/nKzJZPGyjWvnSE51Zmw0v7d/yT6lXzKbqt1fbeO3RH38SG/hB9bDyrXN48aGGFS94zwcC33cwRxtTybzeFq/cPa88rIMdtVzYPffvt4u44aOd34u9GsxM8aEzP1uKyxFFk+fp4j3bP9lMU1tNBf3bzqontm6nT63xkezU5AnyjHbcw2xSb6HnZwbHB9m/kxvi+9v/GeY/47yRjm/zGd/aDz9lRmKCRfPTf7tnNj8/nobO8RxMuZjpBWQrWg8t+i8hJUita3RuPVfZgYfHyhsA7HgpEKWClP7On4U2RarrZAl2ru89t1bW/RaMllujVwe8dCeHMIdvQzCZZWO5cu8teu4eCi7Pu21ubgZGXt0IT7Moa+XXJxXL/948Yhdgy1YJ7qo1Qbd3hWjLe2FLvY+Ri7WaLf90o3ztj7jmI1CX0fwZWYLacuTFibGw4bVN10/jRlDS9SGhGSMybVYJpJ4VjkE1ZHaYuwcwDYiWe18STLl4+Cc+MqY+OQCug7Js0YVC6zXMDYk0CGOOyGxnpHGeXgmMuY24melb3P5vM8sqlsRL2JPSnjjnNEuxTMzL8mQ75VMZj//6JvCDxy7lVyC97+es25uaZud+2MM6TxMHgcyZiKb7rvqDNzb234b1xnk0jkz277b5hhjrTGzYVvfYHzs5fd+3NtERl47xB23HezhNi8VYdw37L84xyjXyBhj9bP4OrdhoPcvYrfZin6Yc4ZN9mdmXrJHsp+ZZK+7+dmWwWfJmI+RWKTS90eFLX2M+JpCk8a2jyNb6J1Z24cgWfBO7eMAhW0gFpztXdj2OvsocnvWoOetH41vhW+cy5LJcmvkAkgOze3gry8eOvD1cjCHK18uWRKhiUA/4LO5bR96nSYAF6JzXcrr3x1ks0S5HWKnowu8Il6e4quj+WTNKI/4JtHN9PPJgVzKh34KNBnd3IPPi7mVdI6GziXPfdzKuCT+GoMcDU0Mz41lbhvHNmiO3o8TEfloWtMtJfrbvPZo0lUmu4G2B0jOZsNy7ttR66B263KMf2HUx2Mj6i3z5HEyiYVOvl8aJMN8v6mOZZKZy+fmzWTleBnnbPYcbFP0b+v3tVy/KoaMbxyj3XfbFHbkuKvjlPUIc0ubsQfPUfsym6MhZ4I+D/bhcaXfNnjdKras7mqvbK6ofzInyUFztX/7WGUeX0bH1ofW0O9322SoXNRfY2lcK49fzx4vXf4Q0y1u25hK1509nqhvXJ/1CvPZ13G9iO9f6aj74wXpYmNrYhP2b9Pb9ytl0pgYsH3dvJmfPk4uLWyJ7NkKVMDSH6CyRa1dlwpZeo2C9nGBwjYQC04qSumrFbDt3VcqUKmtKmzp3dr27m17l7bNlf0BqUyWW8MHZJkQhIO0H7rUrpeZOVz5sjBjOjYR0O/dAW7ol50e9nIpyCUX+66RyHNLVJ/0kou4y17s1/Ql28n3vr0htt1/qm+fefIEc5+/tSWXs9Mll2PU1/uG+zvfERor7aLmOWzMrcwRUDlsH7bR7LLXMaP9VL5zY5nbxrHEkMSQPlzYxmSSdJd1eE0zxs+xtgfYFmo7h5WlkfW78X6JdhC7EuOZE4n2EMgOC0km+2lBl1k/tc8YLx7W0fl/7iuSlXTr82YyRN+oHbo96XmI10zOwYZhnKwT9c9sGu2+wWNbm+g8+MH12dD9Y23BOtk+Ycygw8ocAXlO/Zuu4UzKYDkSnXT9ozOAiXMMc25j38i4yocypoplWlvfKW3rU/9MFgvrIPZi+7JtAjzHJJb5uaw//O51iOket/q61FURf+l4I2t7HmMivo7rRXx/9V/Xra3VdJLn3WdBt84gZxinrwe9E3+N8quM2sbPj3z8EXBJYUvvtl77l5Ejdl0qdPHR48cHCttALDgJKkzpqxWoBBWpVMBS4Urf23Zqa8VrVtjaeRqZLLdGLhB/aQztfGDHA1kPWnO4ygVZHfh6wNvvYz/LkAA0YoIVL4/3zKo+G/4y8nLvF31y+fEaZNfk2UCeYO7zt7bcbvuFWtg16Jv6PPOdSc7ipbw8x4AmXXrZl/HXUNlH+4muZ8cyt41ju1wd/W8z9HemOHZJP5ab+so6vKZJZnZftHktcR9EogyK8e3wzOlwG+Qc2deY+9MT7SFEvWdxGvy3tb0Ovs/XIHb7UbxIPKwQfZLJF9oyWSk+1B82DvbvrR3yWGCZo0/NvK1NfGTXz2Su15D9lD+XfdzaNe7S9e1Y6bfPa2VZnSPBnSn5PHV/w3COTOZy+rfXyZwbuy3js2iDEda/rU9rzPQiWI7xfHPzVAz6E7v/xRebPVaY7D03v7OjjQ95Hvcxy5DOLfj+Mp/Y18Zx0En7p3OrTbyP7LyNQrdg83oN8dmRfh8LlxS2K33Oxc75EPODjx8UtoFYcBLtLxrTly1aqVClIrV95Jig51VhS9BX9peRM1luDR+Q9uJV+OBvF196GcsBbQ9kGTPOJWu0S1STgKNDOV1T53KXgM5HsgyMF/fNSS+0jHgZi/3auD2psf3imPg6w8/b2OdvbTJXLXfxPEkw0kt5kKHJFec9Z46Ijm2xVMRMJ03IiFGGtVgmcvkjYv/9rzGXmH3Ba5X7hOw5yjd7zjrxfNEH2b66DXMdLGPcig8yrF6jLoxJAvtcUT+NF8KPF1lIbvGb3X9FTKTxS31VPvojbV3u4JsgK0Oy6ZzWhlaeptP4h6g0JrPzz8xr28XWrX9m0/PjjRA7tHl3u9o+srYf2206yLs+x0A4q3cfhX6N6jwZzpHa3s1HXf5qzg3qO55NhM4/2UfdXvRabVb/obFNTpZjlFds0vqRbcjetl9u/3l86BjnxxofM75d7CPzWVuxnY1MPMfEXr6/jXejh92XLXZ4HwfZ1Kej77J9tBHjR/1lbXMk/9Hzj4X4sd+jopKeUR/7+7C3gN6htR9LzvqATxsUtoFYcBKtsG3vxtIXfQS5vVNL39NXK2DbR5Hpe1vY2nnotSWT5dbIJRIupOGgjpdZu8j9ZSXJhW9LD/2sjQ77ZJy/FNq6Vt7i8nhftAvvaH3uZ+Rm/fYLck9qRB/7/T63fdbaIuKrKM+YNB3ZLZtHxtgLdYgf9dvoO42PrTCIicHKHKP8e799HZUvxHP8q8ij/XTcJbHc+46J2E6zNf2rstFcbEeys4zleaJt9bXYSGWa0nQ3CZrOt8/f5Nmf8fxW1wbrPNNtjtVhStwfG9EeOaMuDM+3yV35XNtpXIw/KzPJ4MYmcg62Y5u1PkY+lYnfvbf9m6zt9YaVYf8+6qrncvSb85n2mdD0Y3vzXJlNx3hyJHZpa1v78RpGV7E9tYWxOl/2qxfHc+SyxnG7bWzbpnv4q8h5bFm5xF4sg4nXJpcbP4zdGWLNkuxD1sfGSIsD6htjItLnM7I3XGxuz9luJJv+YC6du4oPEwO0prFPSmVzh8xp+1hbEPue2ftYfH8ru/k+2DH1p9qv+W2PxQr1ocYBz5X46zz5P17af6VzDg/xMeFWMBN4t/ZxgsI2EAtOohWkVKy2d2npq707G3/PltpiYUuv6Sv7nVwik+XWVAfxcLHohbM/1wvRHMh82NLBHfqml3XoM1yW+tzKwbJSvzaWD3aRY5D3fWEvqOy5InZOLjV9TrZrdtq/j8mCv0RzxkufEN+MlHKzjc0F38YMl6nGQXtu/DPM7fxmn63NMergE72qX5+jTCqvjGW1Ofcxc/i9RbLSOsambAcaK3rwmsY2LbnJ/6uIGBsRI5OF5w/2bhjZG1Gmc+l7NnnmYDvn/pyTx/ses8mc+sz6svvb9tP2wefdd/J6rqPYepcvkZfj0q4tY9q6LQ6ijWx85XGZQHMc+qOIj0m8iSwi21yuEJebXtI/zt1kqGL/aI4k/tM4jrqaOTROhtgazhGdY7NrfJd0GLth7WOfp7HW0TW6DvLaxYhZ98jHHO9JH54nG6u2qPco2dvaf7erswHPk/l0ozyfPVm8xHNqsEdG6+/2VdPD29fHU2WDiMyRxYCj2zaQxishshzZ6WOBilt6x5YKyiMe8g86NTmyZ+DTB4VtICs6qZiNRSm1UcHbCliiFbz01d6VpcKW3sGlL/q39Y1ksjxW5KKyF8p+cc4pLtFbkRSpIyorXVTFxW6TGncpuyQjXrYJLM98fiFcusnlei8X50PAidJyAhNQWzb77bYnm6tvqA8nLpSkyDoxORMZKjliIhkZn+/zB99v5Ant2O98bEI4ZzXehqQ1ScSjLQXRJz8T9FmYa/ed7evJbWf13tfjvlGuWNiGPdzGRP/ta+paiR0GKO4O+2V+9/E0+GDjuji5Z/LYOZfDWNO7hmMgi5G2furjFvtzf+Wx3GgxXdzDPG5/XcfD3qfp2+Ip05/jntfdiXPH/d72jO1jsf39WI1z+5eQ9TxvazZZj+Nd9Dzsl/jLy2/PEqX0EQAgA4VtICs6CSpaqUjNfj+WilhbvLailqCv9q6tHRPJZHmUxMTvY0KTjeNL7hbIRRkv/3bR4tK7HZJM3SDmKD66P8h/ezLasP7b40iSmTqufKHxIHzM++5cdJ8eFg5h71AcpGM02R39dgOCHJLkvt38Tb6QuKgLgE/EX3eFFmpXnrtlrDlMkTMp3C6FY+1AjzU515Hz74HPshL6w3BfhXNX/so06SiyJXtq5TwBAHw0oLANZEUnQcVq+11a+pcKXCpWW0FrP37caM9sW0UmCwDg4UGRAABY4zaFLQAAgIcBhW0gKzobVNzaYtZ+xaK2fSw5tldksgAAHh4UtgCANVDYAgDAxwwK20BWdM6gwpXeraUv+/u09JV9bLkikwUAAAAAAAAAwDEobANZ0XkEvZNLRSx9RJk4+n3ajEwWAAAAAAAAAADHoLANZEXn+yCTBQAAAAAAAADAMShsA1nR+T7IZAEAAAAAAAAAcAwK28B/8O1flxaeDwmtmckCAAAAAAAAAOAYFLaB//C/+M/fa3FLa9GamSwAAAAAAAAAAI5BYQsAAAAAAAAA4K5BYQsAAAAAAAAA4K5BYQsAAAAAAAAA4K5BYQsAAAAAAAAA4K5BYQsAAAAAAAAA4K5BYQs+DV68PX359Ten1y+SZ9fCc789Pc+e3RFPXn11evfqWfLss9Prr786vXwa24lnp5dfXGLXbc4vPj89SZ+t8Oz0/EWQ9ennp3czH5Of+ppeJ9J9f6av34dPJ7Hz/M03py/ffDa0D7De2RwX+IblqXw9QjLmMbNRygVuisZ96YezkJixe8G2p2vw+gsxcxQPbn8ucG7/AO/xlf0FAADgkwGF7SOEE+orEoar0CSNilBhPcmewgn7hYWtylSNHQsQKppa/7wolMLJ6im8fiFjs2c3s4UyFCVlgprrwJhktdJpx8zxdJuTEuhmt8HvNWzX3j/IFZNdI59/5nXyhe3MB3sc5PqatYZnYwzVheHE5gkcg6FouHQfnzNulF9st/toUshcgeh7GSTvNeOtD49jvjH6Mpdh3ecd3Qt5HJ1LUdhOfMk2uOoHMMq5heq5/SMrdqv28SsZmz1jnFxq06zfDJojXX+zYSHXzgVxBAAAjwAUto+QcxLbW9KSRJ/8UwH0/mVxaBIRixIhK0BMck+vdfx1BQz1u22RMBYlVZJay2j7zxPc2k5lYsmJ55FtZknjNvaFSabJDz2WvDwsuz6b67Ez9LOJu1uLEF1jTAy0+arnOv81hRmvoUl9+nxG2ItdDit363NUyDwA155dNg6y55G1/vn+Edt5+0jbUcwHVgq0ZWJhW+2vJmO9/5o8l8aqjJd9kz0/hGPywqJyw9kznkWT2B5jQmQY7w9pX/JbXC+cL2TjfZ483gAAAKCwfZRcmxxehiYgtlD4WNAiIyts8yIoFDFETIwaIUEp22j8jX3ik6FGInuZKPn23BaNYo5M10ZlswW6bjYhdGslstOzvuZxPPIYTYJ3zFrDs1DYBr13+9Haha2KZHqw78yuhLXLKnZOleU12/mznqAfFzGX+XOV684usmG+zyvyGMgY9RZbBR+wX86ToY1ZKpAO0bjvNpTX5XlAcTDsERkzyHMUc0cx6xBfsW0nezSX/5jhbOzngn3ddPFr9LOkjXXP5fsxPgLRDtF2wVZe3nAWAAAA6KCwfYRkyWFM4OylnyZoBCe/+wU7m6MnKtMkpRGSAysrr0lJxJ74cELR27WfSQajXHsSlCch+3NZw+uxjxvbR4YEiiBZgx1YxiXbrJOuvUFr+fY8URK7Bf+WMl6QbMVksqO+dX7/3PQziaRNCF0y6OVh2bdnL7tNtrhoxW1cSxn0LdciROYeO8Pzfb7SjhzD+z6TfXcGlaz9dbA1r2fajMyDvcj+9t1xIq7xHsjOrpx8bx8R90uzw3y9PPbTc5Ntbs8YIfraPWc7i2wsT9WvoWt0XKypXbpOZi/1Pk2fXK82JtqqyenWjiz5Tuzx+g3F49vT6+yHQB0rfyZvpp/M7+SP+8PFtp9jjAn7PF/PksZU3EvRhwOjTSQ2ZrYCAIBPHxS2j5AhOdwuUXfJx+Rrloy1eY7m0As/m8fRkqOQpL8MsgwXeFyvzbNh5ZIE8mCs0pLIIYFTXd5tCZfI4vEyjIk/zxsKmyHRugHLc6ZySqFmbdXsUdP6trG2jQhJH68bfNFp8SJyuViz46zs5MeYMC6ynhR6HcpxiSzi9y2Wt7h5/WYjxNtc/pC0h75ZTDFsn2bHrTDi4tTGxehnosWOjSH2wax4fg9IHHwlOmX6dhZiLdjQ6to4jvnGGAMsq7OPxnSQm9awsTDEVPehl0/mT3Ta+u3zqX/7mipD1zvYqY/Z5n21zbUVl+OvimRjNo7iYRrfhtav/UvzTn1tifrK60HWSIwPp4vXl/3j9LDP1b4kw4xoh2i7aWyqf0K8DXEDAACPEBS2jxBJDsPF6tDLOSQHPiGTtpgI7sQ5CJ2HyRIgHTOTTRO3YV1t7wkMJwpxfSKRK45lJHl4t/WltfIEd5ZEJAmO6jUm0Hmici3jOgUxqdrgsVtSa5M9toGx23GyFdvEJt5HcxvufxlZYofH2qTPyh6SwdQHJUEOjYlLYJsMsgT7ZbonY3aCLUPf6JtmLzef6vTu1efyLOkv/txtvfs4rE8kcfPQkDxydqh+5foLsRZsmO0Xtmvpk0Zimw2RNbJiL+uL7TXLvo11/iLiWaY2Cf3k7Grr6piuU7AT4/VhPdyc2ZiNJueMc2xp/EMyDOtN2GXOfdNJZd76u08neH3HmLDPC9sY3Ph0/W3daWwe6AQAAI8YFLaPEL70ywRDkyMiXKwuKeMkuUrS8jkakmhlz2VcTC4dmpwPiUNs14Qhm2vQP5mzJRI+odg5Sni7jq2PSVTElhW3S1gq2SNpovZme802rOU5nj8mYCHpy5K6I5tuz+njsT3R5jk0Do2NZcxxkskc6CnIXCQjzSc+nIzRmBqwBQL32feQ9cM8Rg4Ihc2+H728hzpsTH1sbf+eYJmNj5udRh8vxBoR5lrZL6uIbN4+7VwoY9LK6WI8l83ZIznHGG5vftY47nrvce2xcSF99vUlnoZ1juJh2J+RsI7rH8+SQDn3wbgGy276OV38HOl52WPNfp8zjt+ItlNf1izoBAAAjxAUto+QmBy2ZEugy1WTHXv5uuRI5zAJ9NIcgX2MXuiawM2Sgnbh58mbade5ymQwSSL2OTfZqbDTvmmyy2PMHA7SXT5u2vWn/hNbMDG5upJS9kDZr8ujvtxstESPi5hUyjzeRzN9Pzu9dHI1OcwYnkP9MNg4rMckSfkgR6ZvJmduF7Zl4m+Od1d06nhtSxPeTrBlmH+cmxBdu0zuWSOxqcHFBsf8rmfKUYxfCe/duAb7b2tPbDuNtWBDqyuvE3VbpK0pc4xnRNTBrcXt6remj+qX+dCtceAfkUv93dcPdmLivt3guVub2UPN9hfhbcO6WB8G/4gM+ZlLvy/f9He6ZH7PiP34ta4Vno371Nqw7acD3PgNux4RdCfb7P5P/AMAAIBBYfsIcYkVX6gxaYrJz94m/Uxic9YcCTYZSecJZMlL1j6Zy+lPVHNu+ITCEmyQ4BKgkKiksBx54nYJmezP34T52U5FklQ+I931L+bS7zuW/toTsCevPt/WtQngxmzt/tzLyza1bbbPYOOwXu+/+d+uW8gha1Ffi/bTmIn0tRJ/p8WnkT993gnJbJjfj9W9R/Ic/X+cDf4jPfK9tVcd/xuJfx6aYe92ZD/usi7EWrBhpWtsn/tph2VN7OPaNY5cjKoufQ2N2Uq2rgPPNcaxJ57LyR6Jsabsdsifj3MbUj13nB6N4B9C9uQs5oI+vO5CjMb4sLGtsrd5WAYnl7XHaE/WzcTLOH7jYC/tts+fAwAAEFDYPjo0+WgXbZpwaGKVJRXUFhOOM+YY0KRNxk4So0a6VtKu844JqMjlkoRqzo06oQh2THAJjNrsOSdm27iBLalhORaSsEWc7M7ODdWB1s9szmNCAmsSsDY/6ZnbSBM++iM0PE9I+rL5LWqzLlfz6YbXS20W+ydJJssafnfYymFtxv6z/rXyDmtJXPW1hufJfIH4nGTxMXJANre1T0Uia6OO/42VuW8M26SQ1ZPFWrAXYeZKdbU+1zb2UzbXho018V+0j+45XVfmCnugydr8GV934lmWnG0Dfv1sj/R9a2VyjM+7TayMMT66D6xNVJ4sjoq4dHbtc16AnZvnMTp12UU+OTMSGV3f1uZtyvKyXSZ2DXOIjnPmfgYAgMcJCtvHBiUL7nKVZGhPSFqisRGTCr382x9U6u1Lc+SX+pD8sXx2ro1t3fhXkX0ilrSzrCLD3rdIorRvliiQfGUCwWv6ufYkRpO9pj/1TZI0RzJfk/mSJKbJPtjYPBeZov8U9XfzWZynzU/fS2Kb23Vv9wlfnD9i5+++IxlTO20c2Jjlp/GTdQedQhz2ccNaYsOuWyLLMF+gyxefdTsamXn+bS9mdrDw2IM+E7t5HwSO5qZ5o9xXwjaa+HhnIdaC3pmurWCz7Ud+bLCswT5tvnhO7fPrXiTaGt3/x2fZMD9BenZ5dVzXO9iJyc/qjrWl83GTqYb0bDKy7Dy+6WB0L2h2WomD1BYVxsZ2HZljk4+fG1ub19zHxEOT7Tl9PLq9bs/VXoNMbn2zjpLFZkRkvd1eAwCAewSF7aPAJhzJxdeTE+H1i5j8NNo8l86RJC5ZghiSDDdHlRjEdp3j3avPQrI1Jg3Enmz5uecJheoYkkafFJm1DxKxNFljPS5JVpqvMvnbs5iohb5t7eG/iBFG24h/exv7xNpb1vU+qnTzfdk2fS6VP8YOrVfGrPVrlbj79sF/jD4P8d7oaxTP03hngu1Mm+gUZO66ap8irsXGxbNGajdhGv/TuY28k/nPJd0jKQuxFuQadO1jvI1jIVMhMRsJMmz4ODPrtTVYDpLt/LOMcbLqfuh67/vDM8rZkPkPYopYib0ZF8eN2fP2o/jZXLRGex58KnqqHaIuPI5ei68kzqJthTyutM2sv59PI9N9qDh5k+cAAPAYQGELPk1s8pA9X+QwodB1OCni7/fEghONluSkSdqYVA7JzaXJXZCl0xKpLDHXZ9NiwLCSbAmtMFgk2DJN2DK7mLa9qMjl358HjF14XWsna49hfZvgZs/jfIlNev8WF7YooP5Gl2J9msf5hGU2a1QEWRvdx6vzEKyjkTfz1YWw35bmqgq2Od12qq/djxKH+TjL2p74WBA7+XPHx1qmt+tP/g3Pj1koeM+NGxujdt8q+54/WjvZfzz3/pptQrKRjLqW299uvyRnENssl2M1zlDEAgDACApb8GmiicW1SWZP7JNnO6ZISRKqa1hbfw1J7OZJ3fM3X21J64dPzHviGAu6AWP7B7D/x0Oww2rSHxLylMlc18TfnqDfLgHnGF4qdrKCbc6u6/ljwQeCC0Td+0txsdGKzuysKO+N8QcliA8AAPj4QGELPk1uVNgCAAAAAAAAPn5Q2IJPExS2AAAAAAAAPBpQ2AIAAAAAAAAAuGtQ2AIAAAAAAAAAuGtQ2AIAAAAAAAAAuGtQ2AIAAAAAAAAAuGtQ2AIAAAAAAAAAuGtQ2AIAAAAAAAAAuGtQ2AIAAAAAAAAAuGtQ2AIAAAAAAAAAuGtQ2AIAAAAAAAAAuGtQ2AIAAAAAAAAAuGtQ2AIAAAAAAAAAuGtQ2AIAAAAAAAAAuGtQ2AIAAAAAAAAAuGtQ2AIAAAAAAAAAuGtQ2AIAAAAAAAAAuGtQ2AIAAAAAAAAAuGtQ2AIAAAAAAAAAuGtQ2AIAAAAAAAAAuGtQ2AIAAAAAAAAAuGtQ2AIAAAAAAAAAuGtQ2AIAAAAAAAAAuGtQ2AIAAAAAAAAAuGtQ2AIAAAAAAAAAuGtQ2AIAAAAAAAAAuGtQ2AIAAAAAAAAAuGtQ2AIAAAAAAAAAuGtQ2AIAAAAAAAAAuGtQ2AIAAAAAAAAAuGtQ2AIAAAAAAAAAuGtQ2AIAAAAAAAAAuGtQ2AJwj7x4e/ryi89PT5Jnz998c3r36tnQDgC4gm3PYV8BAAAAHy8obMFtoELr67en59mzFSaF2s6z08svvtnW2Tjs+2GgovIqO1jYpt+cXr9InjVbODto25vPTL+Ep5+f3n391enl09b22em1ez3nyauvkjVk7VxWy3wtnrvU+Tawj1IbkWyTtZdidI1ahodG/HR5gbboZ43dc3y522SyxvScOU83ibUz4n5b+13XR9ZqOk5pfj6Mn4P4Y87YqzeMV2Agu6Z792BvTGO35vmbzN/jWvm5bKEx6/HeuN36N4bvsUV7DnfeDsuNfQLAJwMK28fGr/mx0/PvfPv0g9mzi9EkL15qfJmEJK8RL5IhCZMkL457iHdMWjEVmSeYOQ9X2Ob2WMNf6ONFfkayvJElMMuF2izZbs8obqo+hsuKw4muM9k2njx95vxbxU2GjyXxpWtjX2vcpHLoHgvz8hgemz3biPNw31F/0SvHy14ktMO48/fAHlfPNltrvEf/WjsNiGxLZ8TMZhvlHBP7Ha1LOokPq72WxMXAGXuVZF3YRyVqo1yeFo8Hfh7svPefxRzTZC9s/r4Yz7vKT+PeiM/evWoxsEDbC68yPxb7cHIesr2dTcN6juan261/HYltzyhsa9lmPjNMCuPZPktjfJNjOfYBAGeDwvbR8COnb33ne6efYG5c2E6SF2K4VLKLYGg7I4G7EpYvrCVtCxdeQC6stcv2ELXrkQznJRRykfv+59k6rnd0SXPCX/yQoxcDIUmhOeeFwl78HBUUjUrOZt9Sj2Bb7re1pXZnnx34v4r/oH+ZzGfjM6ifk099b3TztotxkCV9Y9t58VczzrP5+MWG6TO3r8h2FA+1vNneGBljM7NTTYuf8VlVMFmMj9gWE3+uxknGLJEnzNqVvdMYpnkz3fV8KHWf+v1hKff5YNtJHEzsyfMf+GmMmfP24coaM65d/3oS22rM2Phv9H5Vn2aLco7gK/J3pdvCPou28WdIOHcX5gMA1KCwfQz88Ld7Mfurf/S7ty1sQ0LiD+y9zV0K5uDmA3+4VCiBiUn2wyEyxLUkyayStgrW9VYJGNlpk8Fd5gPnJdVtzmVcAiB67Ze0rP3lm61P4qfRFoWsZu69fSXJ3+Cxa3EyxqaRh+ZJkokhdg1jIrfii6IP+8XbgOcvZMr2WGyj8baNdUn82ccMtrSyij9ifND8ox1qWIZknjmbTN8m2UL7F29Przf5XFvCboNchzl1bLHe6ZidaSywvfNxFu/X+lwcYuDiBFn87tf1iB+3+CL7p2uceX6qLWp7Hcv0UOTxnclT7O0NtpfOsbYHkr3Jdl6N4X08r3dRHBiuWP82JLblmDlYJ+tj9gXZZvAXj/F7LPVZi4mFfRZjiObbYyfs6Yv3LQCAQGH7yLh1YVtf0u2glovQXh5ZosBt7jAPh/0hcvFdciFIghrW4sttTKSk765nfC72oIs0JACZXLpG2YeLnXDxatsq/tIWmcbkcNHWeuE+V//tl7Pq2uRvMgYfl0nGtjYnyCpz581WuGz/DolHYIydHJ9MEC1ZWklIRxvtcRx8HXBrqr6DrZNkKif3Fcnp5Q86xVizqJ/W9qDoatfa7WD75Yw+2Fmah+3XYij6TV7v85vXGnuvi/V3P9v23NYDWVwPso12G5n1kWfOb85Xut6r3M/zdQPOxhkiC9txGs+1rwe0/0zO1X1+a8q4JN1de/S5EmwR98CgVxpPkXGtVM4gI/VZ9smUxfVvRmLbFTtlfcgmZO/2r31G8Bgb0xTvfg7nQ56HfshWnxXRNnzebDFR8gHiHIBPBRS2j4ybv2O70S9LuhD4QKZLSA75PWG0iVm8AOTSkmftAqH+9UUxonNccCHwpRPWYrnjXNsF5pICutA2me1lu19Y5iLki3Jrs5e+tu3zJfIn80vbwWXOJIkAjU0Tj/NsnScwxofpGvu4Pn5JF4kbp4djX7fuI7hkhFEbUTHAickoSx/zlD4WK/5oc+x2qOwn8w8+zvpqMpUW+MZGM9t7/TOZqE3mIr24f4sJk8zxGm3tuJbagBjtYPoVjD4w0NxH+9fFTNQ7t7ddL11f9+IYP8aGRu+o65JP6Pezm11LWx3F+gbLoTKR3N1eib9X7JlANpr5U+KjrSUyj/21PcpUUfrAYGI0ff5ArMd34gONA7tf2L5smxlH52KM/QU5bexkz8/igvUvQGIts88xbG+OmWBL3Rcv6Qx8k/yl8zhm2EdBd7Xr6zci6zDfRrSNP4dC3Fy4bwEAAgrbR8b7LGz5oF+56DSpaZeNHPgtMZpwo8M/vzxXEgBNWsKFlY51SYWOi/K7Pu11SPa47SjpIcbEoyZLyGr6Ja3ypfYa5NzlsZf8YPsQL2khYmnJbvoHTjzjXN5GLEuYYxjT1tt03fWYx2ofTzbZ9oWM1xiI/Wc6tH1i2PdKYv9hLuonPiG9WG/qx++Mh/EFEt/bWH5nUOYafJjQbNzGe3TtKLOxdZfBxVWMcXm9+yu+rtaf4ddf9Xmky5jp1JE5d31GRP59PL8meXjet9s+aPJtz9MYOCLaNKJxa/ap+D85k2y8HsmhfWe6H8v2MOw+z5/vjPuQx2667/ea+MzGZOvj437fpy2G7JjMFnM5TWxZv8xQudvr69b/QBhb9ja3L5I958ZovDu/Bj/b+Zpt1Q5sE7VfZ3vmY2AyHwDgbFDYPjIeqrAdDu92UPNBL9/HC92Of7cl/HyY9/5jkvBQB77In6y16ZHJK8iFyLoamSQRqZM8m1gMc9s+9FplcJeutq2yjzXyno3XZymBYTntuGx9ScS7HWgMz0t9ZWwVMw22N9v/OOkV34zYMdyn6yZzVuvvdkhilbHjW5+VvvHZ/pzkbX1222S2NfT4LPqpvl13jsMkhlUHeleZbNb6j/FQ+2KXWdvsWm5d1dfNu2Hj/82WeLt1og2PbKo6pLrmLMX+Egc+c7R4sWN8G5+fLBe9Vn3IVmefl+LjMT4V9lF4Hs+tgNhYqWx3MIdw7M+HYNnnw5lHustrG/dxD/D81k9uHxC73ty32fKAfY0WN/M4H+ToXLr+d3hc9myJo9hdiW+Nq+ncMaatH3UN+4OJYd1BjjFOYwy5PZFxpBcAoASF7SPjg3wUOTu4NySJ0UTMXA40n7wjFBKo4QK5DXJZj8mctO/JgLxu8lO7XGBWJtE3SSD0gu126vOMuAt0e+2SPW5L5h8Q2WaJIstqE7aVuZvsR4neZC62o46n752+3L4n5zEJdKgsXUcaP4mPca7ERm7OMUGxNtu/b4ljDo/f5n3N89SFw+APC8mlfyypyTO1jcK27jbxdmUdm82bXzPMvmz/XYnYZ5tve8bv6ji569gbZOZ1W5zstpG9ZuLHydfadf9ZWRMGG5m5WEZ+PfqE/RHiycbuZUisjLZRXSZzy9rt3XXqrzLzXtvnFD9tOh/sh5w6Pgnxy25bx8FabM+qn/oki5mdcT++D1Z9Putn477bYYqJ/VTvsS1dX+3KP/hwc47w+NSHV6x/U2hNE5tFfJN9exyx/kHvZJzb67yfZEyfy4yxvqzmi0Tb+DnCnluYDwBQg8L2kfFeC9sXPmEcLgQdywd+PMwXL6RbwDIkyZxrbwmCk18udysTX5BZAqHj+ZK038d+FtI39tO2Veo1kmSF554lP6ovzb35TOzj16uwcnSft+9tX26ni35PLGLMNNjWLh4SnQzjXNI/2miXLz738+eyVYVLY1I4LNp/vr6HbaS2jnZlGWnN7bnrl+29Lvdos1GO3K5pu9NZ9eMkvLBh0n/vp+O7LOa17jmOMRMzLf76J0bUf9X6Nnb76zZvRjyvCh/LPGP7TrN/Ej88p9GbdKV1qT2uf0gyv3tm7WtgGapxO6Jn0m/pTIz+fT9En0vb26CD2KaSf7pXo5+G/ZfozX28HTM5+7pF3Fl4fBovl69/O0QG9xf4h/jWPlNbbqT7wsR9+lzmtr+C0Z+l/T1z28z2HADgXFDYPjIeorDlpJiSOMd4UGeXe/uo1nA5ZJfFwgVyCXzpFPL2ZIDWHhIXSWasTDJmnEvWaBdiu6QPkoBsTW4LF2uKXsRVopgkJvnc7dLdk4b2V5FbH9J5WGcip9hC7ES/h91jgsbwvLSmjM1ipvdN7JwmMso414GNhuc2ARHf92dOdmqnsYl8bo4Ay34sT9NB9JF3UPd9Z9jk4XhsvtL5s35uncyGW5u84xxtktkwayNG3TkWzP5psbH7yevs4yqXpRzbMHaIfWlu93uqAZbPPIuvHSSrO690jdTe1i5RL+mTv+OvOtIfwYlxNay/QrJ2o9pzjMR9aYtGNYf6JF23M5HtAfE+Fj1jTPE+45haOHtY172f26Mp6mOzZtw3vW0Wi4VsjWxO4QbrX4PGRrS5j+8i/oKtx3EJ1XO24ZEcOd42KuuUap8BAI5AYfvIqApbaf/e6Vs/7NtXoIuZkw26RPiAp4twO5jpD/qkh7ZiL4NwOaSX/fQCkcv36ILJ4EsnSwo3GfdLLF6cul7Qoyc4UTc3V9HW7ef7uESO2+YJiiDy5Ulgnpzlc1PfzTa/e3umso0JjMw3lVOTE7YNoePF9rGd5pOxLiEMcw3tCs+ZxME418xGRNDLJkn8fYsZtVH/XsfM7FkkLWPcWxlE3qZDapuAm8/EF7V3GfV3VZ0fAruNgs2cHYo+DVqL1xedxrn39tjWXzubxnW8ffxr+Z7XjLHBc2469D9AVvuox77aMv6Qx9H11deprUS/GJdP+NMuiQ2DbDbW2dd2vbj+ImMMmvbJfPzc7Y8Y++qDbA7un+lrSO23TqXXEc3nclaN60s76VrrR2s7H3PMkb2II51CXOvYaKsem6atw2OiPzw2lvyzG6x/MWH/D+z7Ou2TxeHBvsjtoDbgT5OcNx8hMaL+HmxUnzeM7o1SRwCAA4XtI+P2ha05lOkA5gOeLoHxoB4ud4u7HIqDfnqB6AV3cMFkuEvHMFwieqHvz8c1e3IX+qZ6hz6D7PrcyRHHHBB1aLqm8mRJQNKWJjDd9/qa5QxzKXY8fe8SpjDvGDOS6MwTKPVLMle0D1EmC6zDHocst+rIc/H3mvB0GX0iNtpqLYnpMvHr1l/1MrKnfuyILK2PlYXk5zUSm6dx0BEZav3GPratlLfF9TYXz2nPFCuLi6u4TlzjYE21dZef5m4xbL83iGxke5Fhf11g5uC+dk5d38un8d2JsWLix9kiPKPXhQ6HDPNupLIGeFyMXavLsS98zHgG+52F2HU2f0U/N4Y4b8+sj9R/oS/1G3RXe3Uq3Vo/nrOOabZPIiOT+TRQ2vcW698cs09mayYxyJRxJPrFOffzfnvd5lzQtcfO1PZh3zpEHo5bXnfuQwAACltwLXTpDZcEHcbjQZ1e7g0zD18G2aWRrvXIWEhQBHMh0ut2GU/tp5d6u/yV6LOlBGYipx1P3/f5aUySUPTnqkMZQw7Vxeg7xl+wEctc697Hqxw8bpA5JilxL8ySGIHto/Pz910HkbfJlO6n5udO80HQtZHYfJ5AmXm4X6ZLshb1LWJP9A3zWF9Y+bjd67TrmhNtxOcLPQvycLtZS+SydvD2732i/Roka19DEvFhrJGzY+ZjmZycLX6O48ivfw6jnh+eK2WaxvQM8duwb9o+y+yrz6ysslfDrw2EuOlxaZ7ve0NjvYq1I9y+yYnxT9xs/RsQ98vgk4zM725fqF5m3mzPp35mm8axhtRW2XoFvKb038/bS2IYgMcFCltwFXQZ7heMObSTi0Au9yIxaZfN7PC+OFEDt6RM5luyp1S+tuPpe5vwyRhJJmUeTd517qVkxiDJ4i2SgT3ByPWfx/7OQkFCmKTpXJ1TyH5Wrtn80wRqt0O9n00yNjy7FBMT3fZH68hzltHEZu8f4jWNE7XTbXW5hqP4MXG4UZ63R7DeH08SzXvuirO/PLMugOc62MNyrl1oewPNY2NP1rYxW+PWT/1pz1khxvnN1r8Uc059iLuf9b1R3FzM7KwGAAygsAUAAACAQ4qYhR/CPDSc2H8EcgAAAPjoQWELAAAAAAAAAOCuQWELAAAAAAAAAOCuQWELAAAAAAAAAOCuQWELAAAAAAAAAOCuQWELAAAAAAAAAOCuQWELAAAAAAAAAOCuQWELAAAAAAAAAOCuQWELAAAAAAAAAOCuQWELAAAAAAAAAOCuQWELAAAAAAAAAOCuQWELAAAAAAAAAOCuQWELAACPkmenl1+8PT1PnwEAAAAA3BcobMFHxfM335y+/PpGyfaLt9tc35xev0iefQg2ed69epY/W4H0+eLz05PsGfPZ6fU5+j79/PTO2Jpt/+azsZ+DiqGFNdT2H5X9Wd9vrvPBR4v4hW0+jRGLjmn9jc/mfHV6+XQfP/Pvk1dfnSGPxGD3D/urrTXhcF8Ql9gHfBjoHFvwu8IxNpxbC+fUUtyssXZ2PgSi5+Vn2oKdiAvO890mi2sAAMANQGELroYTi5707lxykb2XwrZMmI8TqkrXGW39J5s8VFj114tz9f5PP9PkvJLxnMI2SYiWCokxScn1yHwoY4e+mhCK7yNXxEL0/8dY2LKM60m8wySbxGV6qU9iUs62OrL9s833KkOR1HNsrBYPrI9fc6lgoHFuDdkH1jalfYINBfWHxkt8fm0R8ekU1kXsXM31he1K3Dx5+szdN+ec7f6MTc5dG8tDfBLFWUhj0phU4jzcd7RVfpYKXnaR47LzfM7ul+2c2O4u3pOlT5o9DtYZbLP3n+nMfDL7DgAwA4UtuBq5CP3l2i5Hf4keYxON7PlZ6CUYZWDZvvgqTVor2hwyNk9SRl2rhGc1acvnrZO2ZL2CXA+de5oAFInQQRIpzMfS2q5oYFtdGAtZkf4xFrbENXoyYlevl7RlsTyslRWxJNNqIpjZWqnibKSIXfXZNKYHWWmuxT02GzvYJbPzOvW+vWeusIn6No/RmhgL8fyRO6Qmytr8kp5jK3sz2ythnMhUxGQ2PoP6OfnGPe51i/tA+nv7jW3r5/mccZ6twH2xYfp02F6ZDjupDSmGMllXzg0AwCcJCltwNXyBDZe2JKrnJjxyeR0kEqvoZekvtyKB7s+K5ENhXYckJEsYiHwt0nHtwq3mVRYTw8EHbJdKT02WhmRBdMnmXk+EdO44j44V30cuiQVZZ9Bb7XVuTD48hbzLZOOlbYgdtkFl09zHjoMEPPdhJK6vcVHFUBGvcu5kcx/v445JqHd0bLG/LvITr3Ojc+1j40rdKGa8TUf/ka9dHxPH+/nT4miL0cT3R3fLeI4Ve8hR9ElswvMn+2fUP2+LNmB92nzZvuY2a0cr6y3O82bTcxn3psyz6Uf+S88YkTfapET37tx3AIBPERS24Gr4IoyXlV4s2eVsL7n4XC44uqDDxZtddrpG2UeTVnu5ueQiTWpHyvGdKgESHfLLVZOwsJbl9YsxEcnnaiz0SWwyorafJBh2/HoiNNrJjh2SuUsT5mpcEZNDHBhdWsKVxbbTeTJH9/Vmz+ct/oNt87iaM0sqfewYWPZjmw6+IEhHI+OKzMd9dtsczsN6Fc/ceIrRMXlOCTq5sYOtRNbBLofU484575oNGn6+WYzpszY2mTvGkrNz3zftVyHi2uOZcBbDvvT+E72/Or3e1ndyq+9Y322/7TGrtmx6tr3p9qRfg+B1uE/wRcDpznMnscY6rcTgKAdBunh7ig97m9osk6/pubYvRFe71m4H2y8nPSeU9XlEBp5nas96rQHtf3FMAgDuFhS24Gpa4mEvI06UYgK1XVpjUuAvnz3BMgllu8TtJTlcdHti19eM87d5XMJjE9d48YdkYkN0bTKucfnlatan3wdra5fJwpikOBJ717RkOCQZOgfRbH9OIpTCfml+SPx4JhxDmTxDzGwMNhEb7uP1dZdnIc6GOZotbVuAZUsSuhUyvWzsDH3J1kamYd24DxTS0+j9ZJuL9ZzIzbFR+vJMX7fYcza0erQYKuQ/A5ewD/49k4lvl8+7TYZ53FYxpu22bZv/pdFFZDDrx7mbPG49T7nnVuE1Ev+59pz8/KnsoWznKf3NA3o+nmNV/Micux/aGklfllvfgVTb7ez6zGT3ts5kojaZi+zP/Uknmk/Xp/68Rls7rqU2IEY7mH4Fbp9EaO6FvS3yNd1Ip0TO1p7ZOkNjtopXAMCnCwpbcDXu4uysXEBj0iVJVjKWL+DWruPipen6tNftctNk4Y25bPm5SZqGJGpMMFjX4bLOEhFCLuOecDTbLCYN6bwmYfF9CbNefDYdN8HZsPlne/1qt1Xufw+Nb2PP5xy5K19saLKzJ2J5EiX6mDiwNuDvrTwrc4hMbs6BidwHNPv7BLOYb4hxkl/0WfFjx+wB9msR0zxnkdzOxtWoLduc6lN6/XKbT2ygPplB49vYSzhHboqZmQ2y+B7iLKJ26HIUMTbEfCDsbyHM3ew003mi4/nsMZk/93CMkWyqixDG87Nk/7FuJv5Zx3n8dFuyzvS3Gmh8s39gZpMk/vb4TeQf5qJ+ohPFUT+ftjtu1X7tTL7kPLfjPbp2lNnYepchxnFbv/KVrnEUa9r3kvMUAHDfoLAFVyMXUXIRbxdLmVDZ5MFcUnJR1pcaX1T6/TB3vMxUhj6mJT9tPX1+hL0cWdfhUpXLebxERcdhvLnEp4lBOS8xT748xjeLOhO5PvIuBD1j2Tddok5zuQ3qL/G36nOUsBwiMvrkSYlxY+PD9uN2Pwfr+sWWMG56ubhbmkOTt6lu0qfeLxV7HLyjJLuPL3zANrD7a2KvM5FzQGQ5pMeL2ibrE0nsR2uS3vyMdSNdEp3IHwux1fYj2bHpcxjHB4z7Y2fpvIvPjM93naoYa31zH1frS7zrXHHfZHC8J3qUGB3Oxq8zs29nQb59nmpP2D3a+qz0jc/256RP60M23+eOOhu6j4t+agv2IX0/7PmGyH7Neb7LrG12Lbeu6uvmbX2C/TTeqn3HcgZdBw7mAAB8uqCwBVcjCeB4uUv7fqHK63YpUbtediYZk0sruYT1ouJLVL/f5/L0izYrOqYJbkxSxgt9vPTzfoIkHrPxQ2LgZMjmHecUisRhRmWLLNnYINnb79nJ+pss23h6p8yvm8id+axcO/RLZKmJPjTYGKLXGh8VqfxR5qU51Ddl3BHSx8fCAuxDKbj7uuyLLHY2WA+7vyb2WoRjOtONbXPO3IXMGy3p9u0k+6aLiWOSRd59CuuaPq3NJchKuXbod84+y88MYem8217zHH397OycxFjYU1bHVLeOyhX3TQb7OtHjbOR84/UzXSJNtyN/FPLZuNq/NzIksB22dV+zPer9Y+ceILnDD8qo/9H+93tN43/7nsayX0lPWjP43KHjaa6Lz3NlkJnXbXbebSPxO9rfx3XgwP9s36qf6p/JDAD4tEFhC65GLqfxcnftetH4i3tMxuSyShIke1GtXlqczIR+IcF1F7O7lHP6ZXoGdn22iUkahsTAJUpJQlEkaFXiMCPK0mE7RH82uUaZRh2qREj9HW2k/shte55O3n6BGINsy6JvwMrmdF2aY4zzqo+34xHNznYs6b+3DT4YYjzaS8Z7H3j8nJXcMs95+tS+Y/uHWO3xG/Z0uo9jH9se9Os6arzEZ+fpNNlnGxJXSYzr2lYOv67Yfdcpvs7Yfdvm4vWnYzbS9QNsx3P3aqT5X/99sa1b2E1QnUmnrZ+cgfr6AIlhH7tki1FHsdmwj9zzYv8f2mRlfY/fB7S2zE/tLCOtuT13/bL90OUWGax+oxxjn7Ld6az60ScqUhuKbVOdeZ7CrgbxedLP7h/bDgD45EFhC66mulz4cm2XHF9U8aKRi80mVjJmnEvW8BdmlSx2sjWpzSVyuwztr2v2vgN6UQ8XcXXxy9y2PSa5YxLREg76Ps5b6M2XuLVZJY9llK0zzCdt8g5FLpOfp1p/bGd7qD8GW7gkaZWJ7prs7GuIDdLEymKSrDHWV+YQmeYFxETugt12MtbLUMzHNrA2tfGWvbYkcxrb2L68j22cDvtuxMZCfDbMx23mbLHjsrWq9Yd2sy8GW2V2XmCi+9J5R+OHvSpy7vOKbNU6O9qv2ZLnrvytDPsmYaLjErxGk8PEYDnvrm88t8mmQ9yznvEssbFu/N7685ytndbL7GTnCKjdBlk6Pp7k/Nv/8vTAJo/bBzp/1s+tM8SxtF1/no+6xz0scWxjx+g8jT2x+6BLpJrj0PYAgE8VFLbgauTyCpcLXzj2QosXlVxwfBGbi1ASPd82zlW00WWWjHOXG7XZPswuy/QiLC/L2cXv29lWZANNLLq+jmbLMC+vHy9xWcPZYRv3hN7t2NorfXjdwQ4K2y0mgY0VmSp7jO02EZLELvq4kqPGJX8W9Z9doyVeTlZat4+Pcauvje2O5xC9S3sTqR3nPH/j4yTGQOoDXsfalPSRechur1/sr904Zpwzs7XYw/vtCf1V71nMqW8GeZlMP0PY06n/Q5+6XfzLcgy2OpCjYuJbljXEE8u0te3rxBgUOfw4bYs6bmtLAdPaZK597jaX95fEgr5W38z0Tm2+iMSLtU+IQbZHsJ/xG493axsf2v7xLLH+dT6y65u5sjmirIHRLlY2H0/U9yi23Hwks9qg+4tkfPP5Hh8Fu21Ehv7a2aHo0+g+EJ3Guff22EavWZcYrwZ+7vwTbV/EPMH9E5mZFvMbF8YsAODjBYUtuJqW2EfSi9A9Hy+mfpmFvumFH/oMF5w+d3L0y1hf6wXIidMrM19yWdYXcXHxJ0nPbitppznrZMbPy2MT2f14n2QMCWHTN9VDmCcciUxDclDZQ/3t5NvXEt9HYjKzAPs9GZfaK4nfrk+TN8ylcWXnqecgdJ6JzQffnoXM7/UqbM1YffZ4kfExfkZ2v+5Jalu3798+/5Ftdr+P8aJMk9QNt6fHPTf2Ce1WNoXX6meDJ8bPMZl/hG6vIMfQNzwfz846xqL9RznGWHG2LvbNzhgHa2isDTJnPqz6qn7xDCKZbV+2XxKX2mc/86KvvG7jWpmshhi7/Lr1H+1e25gQWVofKwvJz2uQnpkt4hnWERlq/cY+tq2Ut8XrNhfP2XRusqhdpvrqHN52i/bSvl5mYdcx0wsAcO+gsAWPC7osKYFpF29x4ctl3C5QupRnCYy9IDUBa4RETBLZSSLkGOe1F7mX0WASk5iwjWu3dstMPiMTJw9ZXyv3vJ11MMmlS1TYR1VCNkPWmSZNHxXXypuNL3zQEsv2erDxapy3+ItjYyyFeLIJZ9uDMZHue9MwJNsG6m9iKO1r+szbRQeWL9rqGj+xTmMsy3kwtt8VhW5TJoXHLAYl5vwzbpvFB5HI2M+bGJNurigLxYB9PdsvQjunaX573sV4Gs4/QmXb90LTodjfg/wbQxxbzDzcL9MlWYv6ZvtpI/OR2F91OPLVA7PHS2FDAMBdg8IWgPcGfRzz7TQJqhOZj4U9GUgTsdBnfPaeuCTZ/kD4ZBecDfma7DdL4Fuf7Nl7QfZE3C/3X9iaHwSkzy/huFi07IVKeBbOUm/7/YzKx8tzHjuNm0VZTWF3E1vFwnI2/2xf3Mt5flMkZtleH7jIBgDcHhS2AIBPkvSdg48NTkg/chnBjdCE2iTT913YavGH4gAAAMBHAgpbAAAA4ANw/+/YAgAAAB8PKGwBAAAAAAAAANw1KGwBAAAAAAAAANw1KGwBAAAAAAAAANw1KGwBAAAAAAAAANw1KGwBAAAAAAAAANw1KGwBAAAAAAAAANw1KGwBAAAAAAAAANw1KGwBAAAAAAAAANw1KGwBAAAAAAAAANw1KGwBAAAAAAAAANw1KGzBjXh2evnFN6fXL7JnP3B68uqr05dvPkufgccA4gMAAB4zz99882mf808/P70r9ZM78N2rZ8kzAMCtQGELbsRnp9dfvz09T5/JhVYf6FXRc38XAV/cEzucxYu321yjXfIicF44fng+ZHxk40mej9lex3AcfP3V6eXT/PmnyTyOdsjn1+zDbZ0vPj89SZ958v14JKfE35eLa3wY5mcK6/0Ry09nSrm/qQC5WvbaPis/qEvPvKoworvAyUvxc7D3acyBDBW5byVmZ2em3H+BPs/RnpixoO+MwX4PxYGc700OAB4vKGwfBT90+rU//r3TT3zH8GM/kvS7gmmicHQp5QmCJO7JRXnhZV1RrTO7wCs+VGHL655lF7H5oawqw87eP01iLDYePnR80Prbsz2RpDXXfXyoq+V9JC6qD693jt/Vn/MfBrTY2On97boFl+ybZZ5uspEvFmzskvMFuQkr++qeyvYjyfmc47PtF4m3bE1H3DNZnwO6DsPeXWO3wWxfHu1ZT9ur09gY9DXzH+oSZXl2evJC5hvXFF9QAXndPs3PJSKNiQDF11jYbrJlc5L+LuYP7K+2lHnG/RyJcmSy1WdgfYe4PTj14dGdeV68jYjPpz4p9tu7V5/L2BIv+9z35Itr9AAAHIHC9hHwq3/0u6GQ/ZHTt6i4/fEfO/1q0+8qhktrO7xfzS4yOdzHy1IvCZovXg68xu0vBUm6/LxLiViC6HN0SS+iNo0yxIuzTjiEtIgx/kqfb8i8wd50+WeXtkukEj6K+KDkRscfyRsgOSo7WVwi92DYJE2+X9PDJrhFjLbkLtj2+Zvcruyfh9B3iJdFnCyi76Hf2lpDXK/ZdpbI7nFDc81ic4PksPKzLw7GzIjz2faVM4rXz/s5nQ/l1Hgd/LOTn7fbuLS/xnFhc8eg62ys3R+WSjfpv8tcjV/gyO+DL2fxtBa3NW3ufY12Dvu9dOyH/TykvlHeRId2/pxJ03W8LxZxOkT7JXI20r3Uxp8RD8W+AACcDwrbx8oPf/v0E9/57unX/prk2Rm0hGRWUMwSPyEkCHS5xYN+NRm7ANEhu3TXihmLXKw3kpN1VruYJHO3Z0ssNlsltp/JIs++2uy8/ZteqmfqrwlJTKY+2vhgeWuZImSvFVuwLg+apKjP7Rqs+4Iu6qN3W4LZ4yr0EX+t25Hj6CH0JZ3OnTcbM7T5pLXtg8PYZBtT32Myu06T40aUtYjR4/2i2PkW5WfZNU6G51020sXHyDTudW2Ju8wG7Rxb0Imp+4s/z6fc22yLaj+Ec8mw4qPZmULPaF7Zj7nMlj6P+i6PwTV2X2rM0g8g++s295rP+lwaA06uIr6J0Tbj/qG5o/1mNq0YfWX1bK/3td0arNcYH5lsAID3Awrbx8qNCluGLqh+eY2HfLukbZvHJghyqcSLe2C4UPWirZKrCXyxxQtWE4R4OUnfXY7sYhUbBD0yuXSNsk9MBuj11oc/4rjpv1+wulYbr+PqpEP681jumyQXhf4l2j/184eMj2jjZbycLpmZwPGR+fomBD9bKj8aJHZJrzop3ePXt1dw/4fQV2P9rHlXxjx9dnpiY6LcI+uwXQ/nWYxbKz/LOfqUbb4it7XHoW1EPrsPXcyb8aTvuBfMmeLabYxUfdQ2y75YK6pk3mxPVO2imzuLut4q4wQ7TvZa3s+ycqYwg/8yHcguto36rO9lwd6j2RrGDgv+Yjt88ZY/Xj3oSzpV8uke3ft7WcS+m69e+Y+T7zFr74zs+d7GczldRMd9rF972Bdn21gp9jcA4DpQ2D5S+OPJ3/n26QeTZ+dCFwMf9O6QNxdgRb+o4yXkL5J4qY8XEWEvZNt+TLsk7QWzJ2Om7yaHuxRZ3zEZFP3MZdcSaSvzcHEn8ifzE1P94zoJXl/10zCm+W/x4lV9oqzExxEfAZal0M3JKex+XeCCGDwkiaEhRot4Ebyfs5jf2/06M9J9clOCry/G7I8Jsh9tXx9nbv8rY7xl4y/Qoye+C3uFCfPbfaGxccQeO37PdR1JJlOojAQZwjkn+ygWAru98tiNaP/DGK1sPvFFt7m8np8l3kaW+TiBbJHFU4r1JXMUT6s2CrQ44bXCGu0M2tr4kz6Zv6s42+bjH8gaHQ5txOvZ+0LXcu0z1AZ9TXl9bHNay/rV28H5jfVVWbp91tZk/Y09AAC3AYXtY4Tfrb3VH5Cig1sPfXvIN4YLOUMO/9dvWt9woYY5VpKGc+D52oXUCRd2il6cRhZJ3JKxbJvWruOiXVyf9npMnLr++jyVl59ll/8os+if9E0v6gLtOyZ5H2d8cJ9i3ezZahI6m/dSxD+jbTnWhrUkKRv0Z9vbGJF+mU4Sw0KWtFtyGW5J8HVK1EVjnHVoYzWGjD7Rp6OP/dr0iYPsHZY63sx4TcZfG9vmmPl5zLjeKCeR2Mnui8N9Jjbc7ePnYz+/+Xy3azqX2NjKJrFr9nx5Tsj6YoPs3LKofw/2eGqTabvCe0VksLam773cY0w16pjYGfxoz9vDc3Kugz2H2Hd93prXL3RO99Hjr7aYlfPHrU+ffOB/m8wqS5DTytH2QNNr0H/Kgc8m7DLU/hJoDW8TZxdd28ltYqXPk/pqm8vZr9oHAIBrQWH7yJB3am/4h6PogG4HdnLIr1xe/eLtiUC4xLLL8jCpWYfni5cm6zKT3VyCRjbRJVx0hL3I9Pth7njZqQzx8lvSP/EFw2sEXeO6ge4folq3moPaP7r42BNw6hvX5/FmvoHMhimagDfbncsmw+wvALNdimcS07utuW+wyWx886fIUus6neMmBF9bdH80+Z5sybbvY8eu+cLHwrh2Flt1vJnxGvtU2PYzQO1GNuxtdr00zqrkPLGT3Rdhj4zQeDOvkW9WwM3Z91lsq/anxK36o5R3PsdOYpNp+w7HNcsx80dtF6fHhPTs01gZfp1lyr7X29rp3J3gb4L0I5v2WMnt1GxTyn7gN1kzm/scfSPmXmE/+XtGqP3libaxsoY5uq9aX20bbKAxy331+xi/PJfV6TyO9QLgcYDC9tGgfwn5xv/VT32BmwO8fN6SunjhhEsvXBR1InkZosN4gUv7fml5XY1+Rja59PcxHb5sNRnQ7709dnrCoBedu7Da2CP9swt3o/bXRpmQCD3Zy/qpXPFyrdcz9iufP1B8sG3a+JjE6Pg234GvSm4YnxXsjwOfCaJjKudG9JnD6J/1W5fhUoKvrT8ObWzHxhgS2W1yHl8Pa/e2JF5SWfbxLaboBxU8lvRQu0mMa9uga9zD4/plX7sv9Cw5os077gGVi7/PxxLOftO+0a4eXp/7jWdYLxKizRd1zMn9HGPb2SWJKdfvID7HeFNYj8SXri2LTd2PWzt9VDidu1PEEdHjxqxhfNnHHMVcQrNf+zsRWZ8R9UXijxTze/Tjfi50dsR+xg7xWeWrQk7xD5HFNQDgFqCwfRS0ovZGfyyqIjvkB/SScpeaSRB4jnb4H7ByyS0gSdSYJLj29KLUBMvIIRdXYgMdzzra72M/i9pi76frke6b/UQ+fX2AzCG2r5Op0QaRylZLOn0U8aE2tPMH2dmHk6SLbVA+l/nnSeVtYDkX9oD4LLN7YouUzCfCqgyXo2tPfVpBY1usmr0zYUyEk1inGDS2qONhH092ornlfJhh1sv2S7WHOIZ9u5OLxlnbcX+rm9jZ7t+21/mjqG1ssk6j6Whf5/6StQ73iO718UxZjNtS1sKvDpFxPOto7dYmcmRn3vyMEKK9OomP2ZZuvkSHrq/INbfv6O9Oj5W2xjYf/eV900fiWJ65v8gf42ygsmtFk0H/pf+b+MjvBmfjIeYrom2aDNv3PIeRP/FVbQONWx6/EP8AgItAYfsI+MEfo6L2Nn8oagof8vvBLe+02YtED/bh0Jf29JLtl0GeTN2ClsDFC08ub11XdfMy6iVt9NkvfNuvrdF0UJ2OLmi35m67+NNuWnOwXXXhlhe76rIkUzKHXvi5DxXV54PGRyU/tbPuOl9ph5j0RGT8+0haONbSBMoy16eKfU89x5oM12CSyvT5DuviZLFjRQfrN5Ld+im+Xl2bbZDaV8dTMq7zUF+WgfaLyurazHpjcTSJLR7r98CgD8V4s49Za1zHoHu22y1Zp+HXk32SyrrBNjvas7xWttfmMd2x+jqO/crybWNnvwowxJTKa8+4dYw8bHNrG7Glt8NMh0mcdLI5lW63cQ3xmx9Hbf11tDnZJL5WnefybXDftr6RZepXa9NzmNl7X5v1f/N2sIsjk6/rreuwj2mugxgGAJwNCttPHnm39vmP/lDybKf97u23fjh/XtEuuvyCoHcoKHGWA1z6ZsnMmHTadj784wU5oH2nfXLS5F4vnpio7ReRrkdtZs1uDyvHMFfRFnXUPmwX+l6fjYlovIi1f7A1yzaxj/MPX8TRVxMb68UdffjxxMeGyjhPqGTOvI9Zb3jWSHzxQBz5kyn8Ep83fWnOQXcbh7Z9YyqDjjsunGfsSWX+fIdlGfZFGzvGUNR11L1em9di3Wb66Xj6YzwqF41jGUy8urYg7y6Pxt7M1u5ZkL3FwTYf90nWGuemOTYZtkS+xwiPy/ZosB/7vrLLhoup3M5i4/o8mO/DaD9L7VdC7oO2rtognUfWyPbFVbBt2voz31Q6zHRviF6p7EMs7fHu+mtMkR/677f3sTK/85/1uY6tZBzv5KAvz1X7cEDXntuk0WRXWpz1NaPtE9m6/cxcMV5VptG3AIBrQGH7yWN+tzZDf9/20sLWwQd1koi0C7C8iMYEoV2k7iLSefJEokoAjpFLVNazDOu0i6g/H9fsyVjom16ooc8guz6PcoyF7QbZxo6PvjhIJJi4XvfbTjl+6hslytTo6zxkfGiCMU2GN2Y2Xx5f6XFb2AYH8d7jMXkmVDFsqcfXMphkj2xyIGeN+G0aV4zo4eLB+TKPoXevPt8Tz+C3ZofpnpnR4trEDM3JMtAztQm30V/8pr7NTnavtHkmNmRZzTocr26uYEOe0/tV9PVrdt359WYffveZ+uVI/zGmRuJ+NAVAo9xrOv9kL8p+reLWxGZ4JuPCszJ+j2Izk1PbStnac7N30r61Dm2OedxOZC/1bQQZzbN+TrpnzbdRD213a2VtrT2uV/X17PvY7vXEpm2fZXO6PRRkaXuDXvc56LXaaSafHZs9BwCcDQpbcDvKS5jIL8N26bRx+yVUX8p9zCSx+ZTh5OFI96kvPhAfKj40KclstidiO3bueaxpYhWYJ5S3g2U7SOo+HCb5I/tfIWfmo5w9tnqBooVYXXzkiN9pvrXkeYASVh6zkNwOyBiWWRPlIaZaTHfsvqHx7bVPwns8E0NMy7qtAEhtxvLke5jmfl+xP6PFS+3zUJg0VoqMaPfMr+qzLgP9HmrsY86O3WbaRn7hdQ5kKWl+nPhipmu1X6Ne8Xm2rtqr9oXZq9+W+fO+hc82+nj3bLdvpst+phzbWPaM7RdkYR23PdHs0/031xsA8DCgsAW3ox3w2TOFL5S0SACrlDY0iQfxMSSZjg8RH59wgvFxF7bnJY+3xRZ27fW+L4549+o7m23fOpldQXgAjffrW1ssgPPxcni/H8VbXSRdRTt/z9yTEhubPN/e5HJ/pMkUZ4fYczUvbIcYrOQkG9pneoZ+2LNmwWfu/pvfMztq41Q3fZbsx3geiK3Jf6ZvuI/nPEA8AvBIQWELAAAAAAAAAOCuQWELAAAAAAAAAOCuQWELAAAAAAAAAOCuQWELAAAAAAAAAOCuQWELAAAAAAAAAOCuQWELAAAAAAAAAOCuQWELAAAAAAAAAOCuQWELAAAAAAAAAOCuQWELAAAAAAAAAOCuQWELAAAAAAAAAOCuQWELAAAAAAAAAOCuQWELAAAAAAAAAOCuQWELPhGenV5+8c3p9Yvs2Q+cnrz66vTlm8/SZwCAT5fp3n/6+end129Pz7NnAAAAALgrUNiCB+P5m29O7149S5/dns9OrycJ6lyWqiiW9venw6cM+eeb05fEF5+fnqR9wPtF4vtW/qA99uVHWCSSXNUPvH7li7dT/auimNs/5jjmgv2r08un47MV2ad9LvlhwCVjyDeFDufgzv6JXR4W2msfYt0NsmP6g5383nv+5ho5ac5FP5d7L5drgOND75SN2H8Ww+83NwEAvE9Q2IIHQxLdmpteLJSwlMkaFVWzyzq/SPliTOQekoRwwQq6HidS8dk1uous7cI+svFRAvt+8DLnfe4HiYvrCrgytgbGuM19fkkyelu/iFzeLofxOWD0KPbOlEEX0rG2Dck324vsp7jfS7lmMaE/2Dmw9WCvvrb6yj6LGDlTuRmZ56ho4PETWVnOM+PmyNYZ6TrnnKl8NicxmdrmIXm2rXt8bgz+PwfVafS9xN7o8yIWnM3MDyQnWNsfxU5ntbBN79eNqQ9ljl0ub4NLYhEAcB+gsAUPxnu9PIbLb0tmXxUXIiPJ7phI6IVO88WLk9dIkuThgjaFNCdhNpmJF+55TJMyTfiOktb3jyQVn1IisZy8FayNN3Fk2iVmk2Q9i80pEovX6GEp5RriNddL4ndBh9V+jMSe3ePvXn0+tFk4TpNkWvYVzed1XIlv9rebJ6JyBl/QuLR/dRYVRV+ft3oe5vLxOdow5cJ4diR292y2Zx2sD0S+0U5Fu9og98OVlPY9IsbUAoMdBPZddncN/ikK243pPdNouhbzHp73qUxELRfDMXJgr2ibsBbp9yndRwCAHRS24MF4H5fHnjDWCVN60TvCRUqXYrxwZ5cpP2sJSkPlKRKdi+xydKHrWg+SsF2FJJifViJRJdNr7HF7xBjXWQF5me8/4cLW7Lsy7rjPZD9t+LOD7BXXXYmDZuevRKbsLOK9vaB7o+qf6UR91cfkj0FWY0/xYcDKu2J7A81n7c/2PIo3WiP2sW1Bx3xOtXl17p9r71WCbEtcMoYoxuX3ndjD7wVpS2N3mNuPb+dXGfct5nieEE8FNPcYf4mP2Hdze8VzJ43rwHlnJwDgYwWFLbgJKxfHzo0TCro86RItLjySbSXxlD6SqOZyG2ziYBJHaTOJ+0GCsM7COE0ivK4yjuR7rsmIlTX6rRortq36bRTPWwJksTqMz4P/VKd3rz4TWfr4SrYWW96Pqd2CzD4ZnNuNiMnTOeTJeCQvAMVnwU6qS/RLtK+3g7FhTEAzvWKfzB5BrtxGuV4y/8LZsNqP9aN+EgtpzB74j+2nfeJeyRnPH7svxR9jH2lf0Ulhf1c2TGKDfNX+tc+IxJ55fEq8ODtm6xnIZj7mrO9lvmxv+nFhXbdmFksmrnvbSNsbQ1xcw4E9UoYxEq9jbG1YnYq1bMw6hnhP/FnybDsjjFwHtl2iikcnl/rS2qCizcV22V43XRM7jXEJAPhUQGELbsL6RZElItdBFzmvzcmeTXjCxRfpl2q84IOM4QIuE4eAswnLdkUSxZfzgd30QvdrmMQgyEx62L6S6Nk18rGkl+vHunnZnr+yCYv4IsaHzDMmHG6ulqQs6WV9HuUL44c2Hdvnqu3W4TnGxHIFsXWTdYa3KzHaTWWNcm7yOZsPOhsdbYKp/dxY9cPepmPNuNqf5zDqO7CyFwjqx/KJb5vexzLtc8e9TmN3G4RzguUa48HZZbCjojZ3fpjB/RMbZDJQ323el5scr9+EmCCGMaNviXheVPta5hPZvL1GZB+MNpO5pT36wMrLtnVxn8te0uxe7fGLETm8vVbx8dpRP3a9Ml9vDPYqCfFbcLxfNnQ927fLT3Jm8kR9Oge2Y59lMUOo/6NMYf2juAQA3C8obMFNWL8o1i7Tdegi0/myC6+8PC16kW5Jn/QNMoY5XOLAycV+mZ9FdtlXrOihsviEoF30VSJgkYRq92MxVtdp/SSZmc0f591gX2XJi/Qd7DvYKpdNEuUYi2HO4bUd2+ZbsRvNc1ks81qHcZnPb5PHnZmcDdWp613rmNoiyss+3OXL4oDbBt8VdmNfa7vGx2WIDKSDxIH428famu/YDtu50Pr6cy7MwfJHW8raNh7ZJonvxeaig4/fhGD7TiaDOzsSW8Qxbc/RR6fbuNYWyWLYrOftleHtIzE05/WrJu8Yv3m8HVHE91XInGVxxui66f5Ixjo/bqTx1mJ2xQYhfjes/dv60Ydx/nG9oLvGzqE+HR3f/SztItv2mmN/1JtgWbY5+VM2LBPNNe6TqBMA4NMBhS24CesXxXiZXgVdmu1yTC68FbnkwrQJRpAxXMBHiUObj9blvtmlfiZHazJpAqHJU5pAGGzi2tepxvpktOlYy+f7E2KjPDnhZ21NlWv0YSEbx0CML+3b5OM+RaLVx67YTfS61rfnktnuOM5EVvZT12mio7VF5YMQb5lc3DbERdhfDZ4vaY8s9SPdWp/ET2FPp2icWJ1In90OQQ+WK8Q0z5G1VfIbP0WZLdUc6pM2vmN1jfYLMlIsvdts18e++VzipPfRuHGv9/msz729ciR2g41mBDvzes6XTb4FjmLgYkSG1H/GR/z86XZPuD5JvBLkp8GPo92W7goii03Gy872bfaqcOslukfZq7aNfp+obP413aki98veTkj8tf+q6MgGK3EJALhPUNiCm7B0+XWShOxC9ksvIpdgneDIpUlyv34RL+KQsIYL2F6amd5DQlL0W0o+lKOLmtGEya+vNkgSCCcTP9ekuq9TjY39srnG/jaR4P6JTP2Z+qfpNCYhhWycrMX40r5NXu5Da+SI/Wq77RQJ6IQ0DhZp6zj7xLmNvH5vmP3Q+0x0VBvxmiYRz2i+yeSittF3YX81eJ2Fs2Gl30Rm0qk+N1Rn0n+Ll7jvvD5BD15z1D9bgzHzjuge2xjtt5HG+UYiA/cNPnaxwnO1MbSuFg30fLC1xoxZg21E/3cp9/F7Ivd/RMYc91MGHUWmfLw8a/JY2AZTH1xDXHf3Z7rfHN6GnejHzNcbS3fFRt3Pyx59GMeN82Q2T3xUxuXb02szXuLL9HPxSpC9/F7oMrGN1O5HHPoFAHAPoLAFN2EtgSHGS+hmDBdehiYY1UXMc4QLr6JdhMUYnq+4WJeTOKVOQgy6VpZQDJe2yuz7RtsUY1MbCiwnPRsSD68zJzCFryS50TVVp9FeM71ifGnfJm/aJ1LpbhG9vA3XOUoYKyrbufbUblGniY7WRmlcjYxy6fzb2HUWzgaW55wzZM1PmV13n2jML3FsN9knefzvLPrHtvOaYV7qO8xB+uh485zkophh+eIY1ce2D3qwXPvrGOMVu53bnNaeO2zLREc73mP0DM/Y3wv77TJi7B/52lLEa/Rj5uuNzBb0Lqe3wWxPiOztmeyLA9x6fnyH5LXyp3FJ+PGsTxzn9B59XMeDsBqXAID7A4Ut+HTgC2+/bOWdWHvhabIxXKbFRWyeTROT4YI2ScOQfMh8Z1+qZRJg0MTT65HrLMljSPh0/J4QVPYS/crEgf1g55b+Tmf11Wjz0FdlGu1VyDasTWjfLm8iz0Clu4XmiWstwnr5seKTbc0Ea6esABvkTe2rfus66ZgktnmN2G+SKBKjXLJe7uPEbolNUlb7dVTvxqYH2dr6P90Prb3Qu/lr1M8+L86NMq493g+GNM43eN6wJvWdxbF5/vyNjGXZzZim65HNWF5jL3pd65jHB8872Nz0TXTMx4x6WKKst0X2TBUbDvbluG96vFqsLpmvN7wtZK7oA9mrxDg+yh59GG092n5N99o3fjz36zbY4m3yUeQ2xyiTZx6XAIB7BoUtuAF0ebaLJSQrMQnNLmNukwtqKREw7Bd0w85N/y+eXn7bJSd9jy/y2M4XJMlYJEhj4jhLwmTOsy/VaMcMtaPXQ3WIsmvfXQ6TTPWEoBjb+mq/lgy355KI2Dbp73XWuYM/Bh8NcjYK2dKEX/uaRKclS85WNPZQd8OQkK7T1rd6HSVjjSyOR328j3Z7W51M24pttjbnB/KNsc8gV+oLgmRL2ldinFjpp/JarD70X9/ImbPJq339vtF+hU/ERqQr2TCTZYy59LnaL12njP2NyrY8JsQk9Z3EMa8dntu2LN6kbWyPUL9UfqLwY25ziWf2UaJjuo7aL/Nrs38p2wbrWPrvCJk/X9sz2t/oavoNZL7eaPbjfyv78jgfg3sfL3u0bfRPfD3TXdZusTP3TXvGY6yMHPtW7/E8GWXyTOMSAHDXoLAFVxMvHv9aLil7ifhLxVxixUW9zHDhKZrg5Ek2MV7EnNRsY9zlVyVKmhhHdp3GZ+dfqqMdB1L5ZNyYvMQkg2xTFEPD2NhPX3eiD+R5JnuzcyeupTqNYwvZ0oRf+4ZEx+sfn9d2a7Dsk+SphHUy9lZ7HSVjjcFmTBLbIS7b75LvOu2v+//V2/uGuZL5om1Erub73OYC6Z3Iy3ZZ2P+r/Tpi51EnlXF7Vu2rwSfNBk73RFftl9pRkfjb7TDEY2ajRhrnG7pf/DwbZRznfmJZ0jEas/os6hCZ7REZO/qR24cxxofqf/eOXRqLE/urnWr/VDGzith15Zy/+BzhGBjt18+HZE55Zv2l/rR91TZNdhpj9RD/tD8oJlg7iV/z9dcQ27U5eT7r30Fv0sHHYB5DO1EnAMCnAwpbcB18CYbEJrQNF5N7bi4xbj8nYQ0UF72gCVyQtScBOq69nl16fUy7OGldl1iNSdgu03rCMzDVD7xfLkx8OR6KRPCAu0rEpnvZJKJqj65nkYwONjoraZ77qs3t7Mt7Tdbice11KKAcfcwH3KOZ3d351M5ByyjvcGabcdGOYr9wB3TE9n69ncwns/3A/Wex1XwQ48P4szOLoWn8LpKtmVLZLjL6bjwTilhv+yyLX33Gc6nMr1/IPOeeOXssNFkvsaGMbTrM4mHH25DHTPyLwhaATxcUtuAq8gtCLqbezpelv+BoXL98TQKQJTrLJOtEji68j5tgV/DB4B9unB1HPmED74t5YcvcopD5hOBzshVBtvAJ/Rqu/5XkZ7Tx4Xvw1X3fEx7W5aB4pj7kX3cvb/A5p3fzIZu9aB47XtZO+mboeHm9+5fbprFFsbH6wwEAwKcOClsA7gpJ8D6VpOsekeQLRRAAAAAAwMcEClsAAAAAAAAAAHcNClsAAAAAAAAAAHcNClsAAAAAAAAAAHcNClsAAAAAAAAAAHcNClsAAAAAAAAAAHcNClsAAAAAAAAAAHcNClsAAAAAAAAAAHcNClsAAAAAAAAAAHcNClsAAAAAAAAAAHcNClsAAAAAAAAAAHcNClsAAAAAAAAAAHcNClsAAACPk6efn959/dXp5dPk2Qo8/u3p+fb9k1dfnb7U79O+AAAAAHhQUNiC++HF2y1x/Ob0+kXy7BZwkvrN6d2rZ/nzD8TzN1ni/ez08gtvC06s33xm+kRozBVJ/J3D9vni89OT5NklSCGzYs/RVyka343Yfyb/8zcLcUvz31D/iyE50jid2emz0+szbcLonrZ2tbal8Vftd1vYPt3m0fUOfT3DzJk+D0gcftwFNcsYfc56nnseLe4lAAAAjxIUtuA9I4nJRQn2vRa2LPelBeWzLSnMCpIxwUuTRwMVP32eUESN2HehsueNt6eXaR+TaB+uNXJzH6hvs7UqpnFm55v+MIEIvqrscfhDCWsXX+hdV9jKXFEemptjJnm2hOozxmVepGYx3cmKvYlPa1vYtfUsCmMbSzHIMsz3tt9DooO3a6ZXaxt94+Q6Kw43NPbmuo126f0nNm9k/rt1YZut20jjBwAAwKMAhS14r3BCt5KAZWhSdpeJC8seEtgzGO02FgGzwpafXfLDhA6tR0lo+zfro0RdQ0EVZYlyLxVpZyHFwe3m1GKDZa6KNMvoK8dKbLhiZyPYtLRZVYjwWJKdfNn+bePi60WijEoal0F+obZTm6PP1fUK67EtZ7Ibf1HfIFeUlV9bu52DzkNziG9obZGX/CV67m1et6aX9UX0i+gi68j3K3Eo8o1+Yppdg13yT43ouTT4UeW6kBUd5n0AAAA8VlDYgvfHSgI/g8ffa1IjCdnFxRUlnL0YyRNCz27nPPk8F5Kfktv2b9ZHiX5Wv53D7YpQTeZDon45Op+1J+s3Sfydbkm/hX3B8xgdxnlHhn1C63S5bTz6gikWd8ucU9im+0Haxv29F20y1+e9H79uOk38sNPmSvy4Ee18jLddBsl4k8LW+U/08PJL22g/RYvWd9v+TeNjg2U4iEUL2yvYMKPrZttZniN/RaoYAQAAAFDYgvdGlsgKkqRTMqXJWiMmTJy4mqQmvlby5EwT2T7/9jyOb4lfl9Ekv9q3MSZWQfYkOWa5FpLANcYEL00eSW7TRn0yH9QEvSKJnuKX4+SY/H6eLOdjbSJxdkwtU1ZMKKxzlaRbX8U4nNDW0bjstnaFj7BkS5KR54wFEL1ustvv7fMgW8PaIpGLSOOSCLGZxXTvt61F7dlc3MbyrBRJqvsbmdPHqaw/2FHXj4icmb08+56jvrIe+WsfL21dN2fHNr+xTYuH9CwR/TJ7i51oXo3BpM9+Fvv2Cu6fyuHJ/CZ6zGx3xl5h1uUGAADwaYLCFrwfJknMXnCYxKQlbzYZMglu+lrZE7jWpsnekITLun28tu2JrUmsjBwir9VF5ncJ8YvPR10PE7lzMImutqXJo4Xtde76NrG2/07W43XU/kVRsMJhoXYWYq99zk2vJCEn36brJvE4JPVFPGa+clh7DchYtomuzesGu1dyS6zOeffqc/VxPneL70F+knvYU6Meh3HZabFm23b9af04V9dvi8m2n/1axn6B1y+iXtn6G1FP58/oW13PyEAyi29ofrEPyS1j9raum7OjyrSdJ9ImMn+5Feb8b8Y2B8/lZG7jRC5+nugq7Xu/I9j+yT66DdG2E4rYAwAA8LhAYQveD0NyuCPJaZFQ2nZ+bRKd+FqR5GxPco6SuD5ei5e9QGhJcUiYYr9CjpEzEjWlJ+5OLmKci/UpE1JJbLm/yt/mLWF/aWI9K2xVf89xkkm6ZcXYw9D00NekR5KUZzINcaLkSb0vIAT11VZA2uRbfLu9Zvvl9uK1tzWed9/u9rf9Vm1Zy9x8W+s0xC3JbfsWxcU8Li3BRxsyNnz02BR1Lv43+elfsetGt5ft53VxdquKo6hnmHOco+mg9lRZ53x1ev1G7eTk8L7JfTzabYBjzPYRO2TzdfttWPtm5PG0sXrGWIYYib6bUPkOAADAowKFLXgvzJJbSaSSpESTo57YaAFVvlZ4rT6fJpdZ8hXH63p7sleNDUlhT+KOEqtZcjpjHye60VrH7OuIvEfy8dyprpQQ0780nmSRBLn7NCb+bNewltp6iSJOriKTSe1q48cVKfo6jZ2DZzYGd59lr/WvXm/f+78uLTZuf7Sn29qsYYlyj2gMpHM0H9P3GvOun4yN+2zwe1FcHMneSXwk+u9+Suea7r/Rxw6jQyln1DPMacdxTIQ56Ln4pu0h6Sfj97Y+j7Oj8Q23Nz9ZrP9yMrlm8bvblKjnns7hmMuY2/7Ad5Yi9gAAADwuUNiC90KZNG5wcpQlJZpc9YSdE1+T6MTXCq/V58sSdSWOj+u1sUPiRklamFPnmieCMt+8AMnIxo1tqY2bTlsxmif+Ozw+1XXTh4ovnVv8pVDbkPgnrPTZmMXJJThZz+VAjpWkXvq8Pb3efNXibLAzx471zVgEdLu4guMAXYPHZs83RKa4nsT3vq/iayX6tCguVn1a95NYp/Vtn+5bIwO1ZftkkL3TdBtt3nF7e6fP2eww+FEgmUUmWkOek5wyfm/rujk7WrlUl/77wTNGf+b9ZrbZMPGW9VvZA8LEvhu570XfKG/NaHsAAACPCxS24L1QJ60tQU2SEk2qXAI5e63wWn0+TY6y5CuO1/X2xLgaq4lips80EZT5fOK9QjKO1/GJYmbjnugXSbeFx1e6Jvr09Wjuo+RWbb1EESfXwDFm501lFjuPfstZT+r9vIOdB9+MRUDmW0v3c9Iudo1FhZVpXM/PJzEw2CXakGNyjLFMdnqX2stTrMHsstqYc33bvtuetY8kx7F7m4fnnMXdECthzumeF1tKO+ko9snaum7OjtY3lY1snxHRb/RL06PUuyPrZv04vpb2wFxGH2+NY991itgDAADwuEBhC94PaSEhcHKUJD1DQsYFgEl0NKGMiY/Mt4+Lr32/cb49wdLEb5C7TvTs86sSNYeMs/OxbYJcPTE2bR223Tzxy+acJaR9vcy31GZlmfjfMtXhYkb75b49zz8cPws6xXlZR4ofZrPt5KPIbY4ju5AsY7w1NF4TRKbRx369erzTvygusrmirG0v5jG622+wg+7ZQY7+evQprRVf12uvoPaxcpn9tq9H/aiNZGr2bm1GN2fHYPumF/exc8j3YxyI/k42A68ZfD9Sz8G2W9oDu4zZ81FuAAAA4HxQ2IL3g0vEPD2xtAkSJ4Yh2dG2PSnVhMsmpNrHtWXJb+9n5tN++5o6/5C4abLZEr1tLpsot3lcW28/SiIzRI4u12AHYUj6LTzG2CSBx1e6VtB6NHccF9tU5iUKHThOKv2mVEm12DXG0+C3gvWk3s872HnwzSjv1Lcb88Ig09/KFJ+HeNMYOLQLx/cYY012/jfxg7TTOFl3tGnil2xPb8hZsq3x4pm272NlnXp/y9jJHhlimHQR28jrfezuL2tb+p76tH9tm65BODva8fa5tUdcY5Ol2WXoG9DnzSZpHKne2RzreyDRwz1L5rd24O/N+Lhn6HWUo/urWhcAAMCnBgpb8J6IyfJOTyhD4riWYGki1+gJdJYs+n7DfCHJi4lvn6utaQoN0WEnSwJZrqUkMNDswuvVdtyTad/O8BzBJoFcvjoh7evR3GHcIEvSJ6PWoUh+lwgxssRxMrye1O/FFb0e7Dz4ZrR5bRchLUg6mQ+tTPKc/ypv03+yVkkRY31vJHPKMyub+sr19fZL4bWzNYzvzTO259YWbdbana+S8Uw7U7RddBH9uz9c3JMs+s58n0vaxrOqtYlvvH2CL2PRt9HWtzL1/o7xjJMxlno8913aA1ZuXdOuMfhN5zbt/jXNZ2MixohZb/HsAQAAcP+gsAXvj2niO0u+HgiWJySJD4YkXnXxkSOJNcmoyWCSAC5R2N4SE0lBEkiXhFqo/zB30/U7YwJ7DjYZdcn+QxGT5TnrSb1Pul2xVOLjksdMfE+yzAvbbI0mkykC0vEVGpNmvlGGwqatKMzsp8/2ubz9LHJ2FPMQRWzO/ab2mu01lTHK1OXRNek19ek+39Z9qX/puvfVdfaxe9vMNy6OluLwQ3JmjGXnVWhje1kfuedmPWr/6O0DAADgFqCwBe+RVvD45FcSupDEvAd43feU8HASesFaNM4mzy6ZPcDZOUsUWwJvGIuHg8SaE8uxwLm1P/e18ueX4ooJ4ow1VuJn99duD26bjjuzCDgkm88Wi7deb47YZL4e9akL2z3exngFHyfnxFj0d4Pm2NvHfUTj9jX2vff+YhsAAMCHBYUteM9IcmILiAcvbOndlVBItKTnvSTGXFQiuQIAAAAAAOChQGELPjjv5R1bLi7lXR78FB8AAAAAAIBPCxS2AAAAAAAAAADuGhS2AAAAAAAAAADuGhS2AAAAAAAAAADuGhS2AAAAAAAAAADuGhS2AAAAAAAAAADuGhS2AAAAAAAAAADuGhS2AAAAAAAAAADuGhS2AAAAAAAAAADuGhS2AAAAAAAAAADuGhS2AAAAAAAAAADuGhS2ADw2Xrw9ffnF56cn2bNf9dnp9ddfnV4+zZ6By3l2evnFN6fXL7JnP3B68uqr05dvPkufAQAAOODp56d3X39zevfqWf4cAPAoQGELHg4qoL5+e3qePVuFLysttKYF2cfB8zffXK9zg+03FkN5ETQvnCw0vrz82d4T+Ssf3MLXG6zbpvPOOCfbOC0CqShfs8H7h2Sr7UM61QlZ5VtpRyJ3BcUeu5wb/mDoRnvqY4H39rXnt7EJfhgEduQsvFV+MD+PI8Wer+5KAMCDgsL2kfCrf/S7p5/4zvc6z3/0h9J+VxETsZskZvul8eTpMy18bvuO4lhMCZckux+qsK2LvRHqW+l2mCyml7UUlNF+mZ8qW3eGtTefuzkmhcNZiYQmQke+Uh/s7P3F1xOsLPQDg1K2o2IoL2xLWzobNj3PJJGV9V22743Rd2N2GW90BhR7bAmVyY2lM8rOOcg94XBPyz6T9fKYqc+yao8SN7JlgGUx8RJfX4T5wRvdB7IH/R7ObaB9hv0sXOR/Ru06OzM/CUTPm/8Qjf1xffwdnsWpf251NiZ7keP0TL00Nuc2HmXu/RfOmsvjHID7AYXtY+CHv+0L2e317YvbJPnmg/qgcDgkuzQ+Oz2/YSImiZBfoyVH514EWaJ1MTZBNu0sm7mojy51f1Eml/mbz+cXPK2VXJoyL80XL3BdI0kmouznUOnZ7FPaIVvPJLhVIiHzJQlLNp/ap4wXs56wzfsqtllk3VEnk6BHOXiN3BfnxDH76CMqbPO9uJ0LH0AWR7E/92ebrzgu4nkgRcLcJ8m5F8fp+nn8ZuMzqN+NzivHuH4VV2eR2PPJdh/YH34NZ4wdQzZzMgSbnoXsrer8+KTQ8+1BdG17JXu2gJyR+Xg5O1b2gYfmXNc1xLraaj+zI5ms9l4ubNHmDef+8ze5fh/qvAbgQ4PC9lHyQ6df++PfO/3Ej/1I8uwyWvK5jjm8Dy+CgqzAuID88pOE59yLfHbJno1NnE1ytidurYDcLq/qYuuyiD5zu43J6EBIDGkNnxTOk70h6TyDMdkwRRvZJ7nE2QbJemKbr7Yx27/p5X+m/zWGY4K874varsc2MXrS60zXMjkMYxdgeSpbprZ6SFqMXxYzD4rdn9lzwuzb1rayB/I+EpNuPZ4/ia2wT8u2Yt9ci+yvM7AyqF3Ppe3Vfc9Z1AfF3Ofsj0a1Tz5J9Hw79z5cY35n1OjZkJ57LQ7yZzvmXlxin2+/j8y9yfG1ff/i2RgXMxu2Z19I7GbxuKbPzoc5rwH48KCwfZTcuLCdJVcrBzGPr/otFFuMXnIXHORyYYQ1iksoJk3xuSR0pEu4MDO5dI2yjyZh/ZKj11uf5yTDlvT6i9WMb8lbkjzTmNfbpZsmEiTPkf1UBuoTbZHj7bo2JiKxsevb5hM9mj5ZMsD+KAoEnottlcRX4f8S7Z8myM2uvNYY5+IT3+ax+oW4qug6B9u02EhofdhHSRywLWP7JIa5f7avo80nc3R9k1jO8PFl1lC97UdyWd/erv2M32Os9j49ofbQ8yFGeb49fuOYTqLzGHuy7kpMDnIQpGuwI+u4aNtl2Kaj36u4GqDxVT9jz+GZMuhkxwxzi613365yME7jqvHu1WcSM1GvaeybPRT6pTGwOleXzdhxMjaL2zHG/fNol+naG8uxYeA5tzF8H4b1a/y6FTT38T5rZyvFwnbWvCA7yPzt7BA7tPMiuWcU6U9jtW+yJ7sNQ3tFs885NgXgUwCF7SNEft/226cfTJ6dT5WEbfAltnAQ88VY9WuXR/bMohfCBQe5XCr+0kkvhU0fp6de0lY2uXzCBdQu/iHZsnZL5E/mJ4bEjWmXZ1jHQb7aL8+2druEZ3QZSCYjo5cl+kovfGPXXPY1xmRD13u12fKLt6fXGzGGxjHR3xK/o0zaPklGHOrPLE5pPZbB7Yc2/4Ru5wO7nuOT0Dfrw+OHPtme2OSIr0nutnYRv36egzlUtmweT+tnY2Br2woK/l5lGfwZZTRJuo0b2dcHY7f16GOxLH/TyZxtWSwS0d4Sn1lf0bG9qxPxOox7wceFUMl0MQf7IIurgTRGG2TfxT3pSGL8onkU9v1oY6L5z9pA4mfD6qW22u2vMWz6ZOOy+S+dSzjagxvD/MqwB/Y227deW+H5L/NHFtcpE59FztsXRUyqHY7jzNu7is3m9yVdN9jmlb0B+IRBYftI+MEf2/9w1M0/glwdtKsXiV6acgkYeF6fkBB8YC8e7iv0C8Oxcslq8mBkkQu8uuRa+5h0jH3a65A0bHSb94szWTOzPbUZm/qLe7RzCs3BRaT09f6Pc4wX/jReDhiTDb8ezx1sWo2xMoj/kzi1cXmUIGjf0X60ntqg8slh8qF6vml9g13DHFOfpOsd25FYSZS8LZMEWdtmSePoD52HSfy0IWPCHrCw7ZN1tb3bp/l8iNExboaxoS+vxfOJzHI2FHS7im/pI/I0XvSK/Sd6Njltf5173Ashjm7AuMZOFVcDateIzBtlNraejF2hkjuDdRlihNBYHZ5pe9df/RTtwfLv+knMRB/FNa6ZK2fYg7ovxvixcuzIWvv447VFh3EvHZP5Io01tscuk+hIcp3PaAfSLew9J1OIU0vwU7Nr1lfsKBzZivuu7DcAPjFQ2D5GHuSPRyWEi6TEJH+tjQ7ldrDb78dL4Hrkggtz8jrFRcTopU6Yy0MunkRnW/ikSULoQ69VhniBZRf5QGJ7kk3mSi7ZxAcDKp+1lZclJiftwm+vF2UvENuOWPtwnyDPqGfwdbR7wK1byV7NQe0tPgqf1DEm9PX72sGuNK+JwalPQt+sD49PEiKWI2l3z9lOu2zSZnRObGDJ5miwXPxsI8hxJJusm/gntqsfM58Ma1RzWng+0ZfGZ/Nae7c+K33js/7c2sf4m+WnZymjvW/NkewdI7O02fhMYnV6bkl/0pHGiA2u17XyTx0TKkfTq4qzcI6IvFE/navt8avmGtnjxNgpW2MW//xscg4MiE6pTQ/gGAjnchprLNOx/ucz3nMjtX5smyA/t1V7RX1xtG+ncwDwCYPC9pFy248j78nDKu6A54PaXzh0KLc++8VV/yTzGiQ5Gi+ImDTJ66YDtYdkZaO8wG1i4C6mka5flji0seEiHBgucVOIB3g9XSujy0x6Uj+j7+4bei322OWdFbaLMWP0tDEhxPU21D7SJs/tGO/DwEESIL4t+rl1d+r1TPyUz2XN8XeIP5LCNsQxjRd9g2zmNc9hY3dljsBu0xbfakc7b0Tje7dh0a7y+DgTxP9mT03n1H7m+x4/GWzXTQ/6Q3DaN5PBzT1Advjq9PqN8R/1T3zpYJ1re59PfdZUOBsOMvv47LYZ9pzGgZs70yvrV9i7YO6fyZpNrxD3kTb3EHM3n2scT/Yc9qD2cTqXurZn3md13BKi0zk+aLCsYe9nbSLTKIPItkhyxsj4o/1T6TffK25fRIzfsn4s19HeB+ATBIXtY4Xftf3u6df+muTZrSgukgHqlyQy/RLQC7T+C7bXUSXSrj272GOCsXGUPPAFZL+P/SwhOejrbW10wYp8+voAv9ZaEpHapfvKyLJAW5/sI+seyxCTk31s6yNzRDvu4+JzSSLSNTXG5slJHStLPuU1jvaDJjougTJ6aEwsYfzU5ZqMb31Yx2Sf+URJ5o39RvtIP7G56LbbaHWOBNVD5srnqftP2tN9LgyJYjGnsx/1SeTiuZIkuTHGeiPacGRlfQfrsXBOX0kVVxHu52zjdZZ5tvtga8tsyM/pmUPjSX0Wmdkzo/RPERNDjC7eARwng28ecC5FbGj2YLYvSl3bs318vrZF5Mhjfs4YL3lbFef1XvPUc5JupKue3SuovcXOmV3UL0l8e7L7QmCbL+w3AD41UNg+Um77jm1BcZFExgsjJm/twjBzLc69glwuYyLtLmO9wPwlrnKZy0PGjHP5C2zx0nJr7glI+6vIrR+tOSQXU/voXGxTmZPfibXypPpqe3VZ6pg6SZB1rT6zhCLGxZiA2PkywnOWb/SNUCcIjmqO5cJ2t7u8E2vnEnlH+8701DEHvnY2OJif7V702e2T2yuL/z7fsPb6HAPB3tUe7qjtBxvGdp13jAOR1cVfMaeNU9bF2Uz81NpJ7mwP2Dk80Q8jzn9q8/ovx27ysB5V/NyOPK5GBt3ZJ8a3zUdmLjs3f2/tY8erPWIMDnFxwLBGQ2UbfDfIfOxHguNk8I2Ovclci3sw1SsfS/B4Y+d8bYvocK4fiMwXsl6Yr4hz6hv9lc05tPX9T3YItnIxRoh+fp2533i92ZnG1HNEHwDwWEBh+8lD/7VPKGCT37GVQvd7p2/9sOl3LUsJ036hyUEuF5I9kHt7bHOHth7wFxzk6QWil9Z+EcVLXNcLcrUL1ckxzFW0xQuxX5z6vT5jed1FliRnPNbYviVWBrv2k+0560d24P+2IF7CipFjaFcbkg3yBMUmAGK/dA0l6jkmIHvs7G0Wb5eji158pzZje8XYncSY2jfK0uOhY+ek36XU2N70dOs7Kj1VHrJRjJ3Qp7bRyLi3Nox/W1uUV/YRtYW9xLbZ/yBSb984niMkjcW4vj+DfeNfRR7sENvVj76v2jn6RvvWMSnft+cks/1eYjvZu6HvAMvsZdnnC/6jvpOYZ+J8apPBj1eSxtXA7m/xsRLOgbTN6m+etfhjXQZ75PY/JPFBo8k3xs+GXVvt7Pwc9rHMFdfR+W4y19ie72PdX9aupq+zn8pi26q1O9ZH2fNzaHO9Ejmm626QbHGvZW0+ruw+32PW9XVx5s8ChuWcxJ4+b2MymTJbN9jmTgYAHgcobB8FP3L6VvuLyMz4EeQPVthO+7SEgC4Nf7GOh3xy2S+yX+Se4bLQS2R/Pq7JlwnpE/oOFxIR+gyy6/Moh79glZDErNg1k0nk34jzN2heu45evnGt9FJ1Y2sZGlHPLlugTAzYBppwhCQhJdq767ZTjte+pSxE5ZO+TpXYia3s3M0WTp5UhnHsEXtSpvFdyqZ7srH5SvZS7NvmuXSO0Ef7+XkIKy9h5oi+bRQ+7//vaJ8r30siq/ThOXi8rmvib7epjGP/NR14zLh/6lhVPbsN5HXrb2Vi4j4M+L1qknSS/2DsOUQbZMz7tDjYbNX9RDqL/s2Hg/6M9Ul8dt7+EESWapw/q2ht9VnULcoTnss8MfZuORexsgc3zPwuNgebhnEb9drCSmwsobJYv/R4SM+MBI2tXZ9absHsGdNOOu9y+D3ans/nHv0sYyz1eO57C5sCcGegsAVXkScRi2yH7kt3+Fv0snWXkR70PH68SB4LbPOjS5ov+OrSGy9ZR0tU7Brmsudx/fXkYu599sQuXvQ9FiqMDHRRe5nDnEOCNdHxQ7DgkxjXeyIj49rrmV59DNtu0c6Rx5oQuYIpeX4E+Zhtp3ZnH9BZ5v0eY5n2tH09xnqg7S2an7/f48YVCV0eMzaJiX1fmiQ9HTtnj9cLeLPdB+6j+YbUL7Yg2+07nI/WPoNOMkd+B81xdj7ExkP2/DEjtrl4z230uCv9scd86Ws+n6mPj0H2M7dX85s9MzxrXK8jAGANFLYA3BlD4tZoya5SX6Irl+zKZX0GJJtLCo5lKPW8VzhxmvwgYOP2Ooudz0ncz0vYPzHSAmqd7j+eZ/Q1P+f9Od9bh4UtYwq7G8bMqozgjKJY4+qSAvpT5+LzpheiZ9iV/SBxPfwQZmEPyZi4L+q70q8xP/sBALcBhS0AAABAXFnYgkdGEi9UzPhCS38A8Vh/WDSDi1P8AAUAcDtQ2AIAAAAECltwNfvHXs95NxAAAMD1oLAFAAAAAAAAAHDXoLAFAAAAAAAAAHDXoLAFAAAAAAAAAHDXoLAFAAAAAAAAAHDXoLAFAAAAAAAAAHDXoLAFAAAAAAAAAHDXoLAFAAAAAAAAAHDXoLAFAAAAAAAAAHDXoLAFAAAAAAAAAHDXoLAFAAAAAAAAAHDXoLAFN+LZ6eUX35xev8ie/cDpyauvTl+++Sx9BgAAAAAAAADXgMIW3IjPTq+/fnt6nj77gdPzN9+c3r16lj6ri2Jpr8c1svEkT11oH0Pjvzq9fJo9y5D1Ulmffn56d4Esc5sdc+34h2Oz1Refn56kzwJsO/XDi7f44QgAAAAAAEhBYQtuAxUgZbFyVCTmhS2/y7sVhANZcaPF417IXVnYPn12es7rrxW3Imte2FOB+eVqIWdYK0xFz9ROU4xeVDCmfWq6XdXuWZ+O85f+AGBrO7ewffL0M46TS2wJAAAAAAA+bVDYgtswFEdbMfJqVjBJscJFn2vX4jB7d47XmBWaVDTpeC24jgvbGxSGkznevfq8nr8XaOfKUL8zbnmf79hyYW8KznRtjZHzZCLbWFvTD0FmMQAAAAAAAB4jKGzBVezvqtbFxvHv14Z3bLN3f7koWivoGPNOX/q8EwunFfwY+25t1NW+W1sXmrkMdXF4f4Ut22GLE/+DBvH7XrCfx/vSDQAAAAAAfPygsAXX0wrRouiiomb+zqktbBffvWzFo74zm/aZ0uS8srAdCmijy+xZNZ9pXy1s9x8urHPronBa2A4ykx1WbS7xMI8fAAAAAADw2EFhC66GihouYlwBs1Cg9kIoFnyh0KN5TdEU3xVNYVmK4ikpDpsMqZyGWBDOivZul+SZZ8FWjih7TloYO9Z0Lok+qQpbh6555L9OjA0AAAAAAABGUNiCK6HCQwvIrGAMRWmOFi9vWt/rC9tYaK0+S+nvCh8UlO2d6+wZE/Q6aF99x7biuLA9YHjHeYRtGQvegTaHFvDWd922Oa9fSGxcpQcAAAAAAPjkQWELrsMWc0nRtVJcUR8uZHrBc21huxdD1Deuf05h2wu3w/5StL3bivPlj0YfzLliu7XCMmeYm+w8FJ27HzJbNlgOMzbK3uSc61MX+HN/AwAAAACAxw4KW3AVdWFFBa4UmPVzKVrau3I3+ygyF9j+XUL7UVYer/P1ovoSugyyxvE7qZPCLc59xLTQ08KeiuzFAj6z01DYbnat3sGdFrbsj2AbmmsocnP7HPobAAAAAAA8elDYgtuRFTADWgS6QsUUtjxHKOIq0qJNi2k7v37ctRVty+8AkixHhWH7KO0XX23/7rpTMbZauLkicKF9Xuh5+w5zBFs0UpuEwpbgtRMfx3Uq2Rn28VebDPF5bp+1uAIAAAAAAI8ZFLbgdoSiVN6JtYWKFp1DsWgKW9e+P1subLRoSosjLtySwreCxhwUtr2A4yLQyigFpi/uHriwbfZ3Mou+7zY/iF9ExidPzbw8LrFvUtjm9hNdrf/KwrbyD1MUtqkcAAAAAAAA7KCwBVdBBYwtZn2B9Gx7rgXVVghJ36xArQpbU0RRcbP47mlaUHW00Jv2URYK285Q2GqbG18Xtt6GCySFJbXvf4DLrjEWnkvPqoJS7dzHJHbKCtva/41mH/U760T9R5+54l7lYf1THQEAAAAAwKcOCltwO6bv/FHhUb3rNha2rdhzxVEsqBxa3LmCL4FlXCuAuHi6prAdaIWbb8+KwFm7LeqanfIi0/xgoPf165fv/hJsq9xn+7i8MHayq81ntmx6CMmaQZZ9fhM7Sz4AAAAAAACfIihswe3g4qMqLNq7cL5o2QsaGddeZwVdo49pBVkrnJICjQswnn9nNnefS1kpgJkrCtuKvXjLn6eQ/F+8Pb1ObC00P2ys2KsqepVKxt4+/WHE7stjO5v4eWHnRGELAAAAAABQ2IJbMi1shek7hJeghehyAfpQVEWVFna9UFx9B3jjksJWCsX14vm+MEW5taP5YcQHjwMAAAAAAPBBQGELAAAAAAAAAOCuQWELAAAAAAAAAOCuQWELAAAAAAAAAOCuQWELAAAAAAAAAOCuQWELAAAAAAAAAOCuQWELAAAAAAAAAOCuQWELAAAAAAAAAOCuQWELAAAAAAAAAOCuQWELAAAAAAAAAOCuQWELAAAAAAAAAOCuQWELAAAAAAAAAOCuQWELAAAAAAAAAOCuQWELAAAAADDw2en111+dXj7Nnv3A6fmbb07vXj1LnwEAAHj/oLAFN+HJq69OX775LLSHpODp56d3X789PXd9hHw8MU8sgIcSrS8LG5/Ni7fbXN+cXr/Q1+S/1EdnwHNeLx/rqbJw7Hzx+elJf/7s9PKLjz/hHJPilVjP+8T9Uyfc9Rr1HrwPlosMjsHChi6OHogz9kDmk2U9C3I/y57pe/0jIdU13iNkz8Jvpa0md5GD+pUxcWSzaq9R+4qtk/Esd75/wXukiB8fb5P4mMTftfsbgMcOCttHyK/+0e+efuI73zt964fz55eQJ0vhYp4c5nVSXSfijtmFf5D4UPHm2ORI2y03TIBZ92SNS5JMkXshYVuBE3Arhy0Y5fsoc46RZ0jqJcnLx21kdg6+Zvu5flbO1lb4eoFL/LDCmMCMsU59/Pr5foj7Z5y7Ue+neg962I5pv6NELtp2k+NF1u5ZtX+ts0XiLeu3GkfX0uzMdgy6Rn1Hn0xsvEjm59qnlnqvennGs6GyYbRB7Jf6NN4jD1nY0tyVXQ7nyPda5fdUzngGh7NvjdEfx75+DKhdoi2Gsyqxd+F7H2+TvTqJnTJmAQBLoLB9bPyaHzs934rahyxs+Xt3MRSYCyVLtoQ6EXfMEpBJ4tOI6/vLJciwMN85iL28js2G5yawkjQtJGwrxKSKOEiseP3KDwTPaeWb+Lewc1yDbXXjgkTsuHFDPxM2ruz3grcFy7Ct//xp1Ye+VzmnWPvW9q73oIVsW/hrlsh1wvohwfMy2PkqXdtcaz53sUNrG//aOGr+p7WfOPtfS7TR3GajTyr/1bEQ545zNl0r/Dm4tc1ihP059nn+Jsqscx3sL7tHjuRs2Biw4x2TwsLCtnLzvz29HNosNKf41LWrnjRflEfWmMhi45TPz2r/JegZPviM2md+fBSon4wdmr/9ntliNcapjZ8W84cYH0/ir4xZAMASKGwfGT/4Y1tR++Pf5eL2433HNkkMHOMcadLT5isKJEuU318uQY+F+c5BLtM88Tv3ghM75DY+G02KYmJcX7wkc7F2evlTX9HTtxvShEJs1ZKQQ4a4nNASwY2q2LgGazsfs6RTi7Mx4doJsajM49cSxht9M4Y5Uj+2+eZFmhDWD2dCdg5M4+9AfkL6Fjal8dpm46mvOTmzLiLOl81PMmncN3vMYl30k33kbWXazDq7jZtNtrVCPBESn1Y2mW+woUHkPLYXz71whqZxHG1m7OX6bfjxKn+FmUN0J2pdUtkcIdZNrDXYXgt26HC8H9uX4b5H+/ExE8+E4ozIKM4FHxP5+cWE8bP9TcCHAKyDwvYx8cPfPv3Ed759+kF91/YWhe2eABj6xRAu9uQySA90d9EfzyF9fJu7YDjxeXt6Xb7TZJM9eZ3qZRmSEb0Uz0lSFLFBkI31HBOnaK/4XOQmW4QkLpNL1yj7nJkYsWxH+g+JWfCvhf3m59v129vGdcUX86QzYux1pMMV2Lh0McrsMuw2V/t8O/iK2e2WxW81t8X69ngO6ePa3H7URO7N5rcyOQz+jjGYEOMvkyv3uW3L9W9QnzR+0/PmcngNO5/usQ7ZzcR99EntI9HP2yq06bzPdY44tuveZBp8qP2G9h2a87jwymS16FlKaxm6b6NPynMiYOVemIPbtjFpXLCMxbnVIT21z0KcE13H5oNz6XKqDSe+ikhs2vmiH3VOWsPJ1+yg8aF0Xa4eqyQ2zM4Gljv0TecbbHQc37lfdjvte4pey/xOxjQOfBwdzgEAmILC9tHwI6dvbcXs8x/9of5x5Nu9YxsvCH09HOCGcHnEhG3HJAf0OiYkBF02LvEIlwFfRl9tCbdc3NklVyeM9DrIMKxHqM5D+zGSUIyX2zDXtq6TXS9Ze+nJxU4YG7XL1NpX2+IF6ta089sLOdMxXNjlRcxzWv/5hGYgkScmXGPiKbpkfs7Z4/WhEwgbVz7GiBBnBNs1xN7w2thrIMyXraHM9wAR9hVB63fbqx23wlZ8GvYpM9/PXoZkvY1RLiLrm48fIZk2GZwuwhhb19BifdeXdGnydd2NHJk9dt2tfjK31zVrG/0syFwcM8OzhspfPte5D/oMMVwi6+36NvvVxLjIY2UjxJ2PY6H5xsVAOOdSuu4k72qsT2Q1iH2N3PFZkDP6voLWjvNKm/VTFiPWJ6Yv+9iuf83YeZu1mci8YXzZYnK0hcrU5dllPLJb9ENboyb4LMafwceByHQkDwBgB4Xto+CHTr/2x793+okf+xF5fevCtl324YKoLmm+BMyFXrUx8QIYLoR2GdkLOCQUNmkJsqYX0vbMXy6T+W5AfilafSrixZwlIwonAa1dx0UdXJ/2OkkmBt1pvm3cK32WjWvwM/LfZlOeJ9g29u1rSRLE7waGhIDt52Sax9/Iuf0vx8YVf7/Zrfn89YvEFt1e+/jRR94eO5lta3v7mB9fy1o+3vy+FTs2v3tZxX9NV2F7xn88apd/Nl9jkIvR+HB9w/gm/0BbP5NxXP9S9n1u1/O+Zb1M3Ht7RN/Z15n+WZuZ09kjxEQaVzLfPqbh+4nfhcx2YodtTDuLGyauGJVv93WuTyOLizxWNoyN09e8lujF8rpn0S8VNIf+QJX6hrsrzlHKamDbFuu6Z2y74NMKtfNoV/V3X0/2U/S3+DPKfsux8fUO62zmlNdR72q8yuTatS/jZd0ZdclipDPkLEUbE86s4TUA4AgUto8A+SvI3z79YGu7cWFLh/qeoNNh3Q7+CeGSiZd8J14A8bUmJC9tUnCYtIh89jKN68sFOaG6xC5ALvcssZwlOuYCNrLEi77DdtMLUr8f5rZ96HWW8Ay2lDV5LvssG2va66ShYBvX1whjx6Ri9O+chf5d7stodhjiKsR8Fne7DTefb/usFQO7PcYxO1mSlye83Y/pa02wXtn9p21dvvh6Y/BXWF9jLpddiDEU5WR4njyh7eNJlrhvedyZsXgRqjf98EfX82eOkdXI6fpEWzrZg65l23jWpQx+I2S+w7GE86v3i5x3W7vzhc5t2ugPTr3b4mnvq30mxLhIY4WIsZC9Vj2r8yXa1SN9nEwh1qIfSlk7uz+pb1yf2nys5Ps8wuMGX5tnXXfVydliI11L+3b9rhjLfQp7h/G5LlGWo3YTo0SUmfxozmGSy/VPCTKV547ItOsaXwMAjkBh+6nDv1f73dOv/TWm7aaFLV22+pci6YLgQ59+n7W+pOOF7tv0skkvBw/N3y94uuD0AqI2t7Z5Zte0zJMM0tFcvgvznYNcimMSIu0hEer6U7vaysiSX+wbmmiyTvq9taWl650lFEF3lqm9jnaJ4/V1k8/rMyPYnsYf6BCZJwZiRxczN2dM3M+F7PVuKyxbLHLsJ+9g74S4jW3dH0eovVl2k2ixD+zaK0lYkCnMwTHR92E+37C/iRh7jNjcxV/sY9Z3saxkbRdB65BeLX6jHXq7fq9rWnvw3jZnlLdV0LVqY339PClWno7MdzjW0tYzcrDcQ1yGdhq32aD/wJLk0Y+4x3hoZHGxt6nsC9D8bOvkmfhlMhc/p7glPajfaqwXcW0Q++h4nsvb0MUH+6+2lYXHFTEudmgyy34c+vJa0Z/at+t3xdi0jxL09PI2irUHGUfE5n5OWmP/AR/Noe/KFzaMfo9t+xoHVPMDABwobD9p9CPIWxFbE4reM6FDmS5jf0nrhZEdzo1wmfjxO3JRrVzQsqZ/R0mhy+/gUqjWF0KCcmPkYhvnd+18EcbEZ7yw84t9Q8ezHe33sZ8lJA29TdfjtaxdMzvzHJs8tCbZt722fQxzP2wcjL8MseMsqfzwUAyS3iEW2R6yR3JiXBWxrDFxtE8Y9bP7lASje3AaV/O9dOj/DYo7Xpd1p7kq/9FaRp7SVhJPvLbqL3tve3Ygy9m0+N3+3XVQOdpa1GblMDLs+zvaOuiatul5oWt1HReQOWS+820SxjUbxH7cLrFBetKa3dfcR+eZEGPAj280O9RxaLFxkT1n0vOZ5JU1zrF1bl/R3c1v7DWeYeu+2mOqeNZ1V7tFWzg5Gtq3r3/FWO4TY1sJ43NdirUHGQvs+uRnmof9va9z7N8gUxjf0bVW/AYAyEFh+xi56V9FlsM5JmAOOqyHS8XjLobWlw95mp8u6eQSiOilMCQyq+t3+Y8TqNWkaAXRfZzPXdKqm7/cVU6jm4wZ55I1mg0vuNBt27Ye/2XVaNMFO8uc1pekwy7vNI6IYTxB+hidV+RwiD3GBPgBaAXkEkbPbdxrls/byyN6pAlgx8e29N31J/sf20HjJ/XDyvrB30aeFBMPrn9rT2OCCLbK4sIkmHbuB4uFTFaWIZcz2w+7nHYe8Wt2Plgf07ztryK3fnRmDD5LbaqxM9ufKbp2Gxf1VUQvat/6039BtLWRbJUvMttE5DxUtC+PI/uSHAvnxG5vguQjO4y2H2Wh9lHP/dk2ZmF9QmSI/pB2sY/MZ20lY6r1DezrbN/GOfcYcjLz+LhO8PlVYyv7qn/NnOLvaKdi7cRmKRyvap9NXv7XnBvjGJr3wO465x5T1C7y0PzpngQALIHC9jGSFLbye7iXF7t8ifLFo5dIP7QnbP174hEvrXjh8evqIiFkXfld39CPxh4kEC55GS7QhYuqvDyPSRMQ1tdeuvFyN3YeLvYgxzBX0RYTPe3jLtiZLWfPGjyn8U8Y4/ygjHJb/za7bHMY+4kdjnzW0Ng5SnA+Ckwssi28rXK2/v2/C4o20TgKcTW1Ba+7JdRDPxk7T8jUX6ks9hzx7T0RjM9s0mnb+zOzRmkviSdeO8ZvnKNqW2WIX41Vqxf1UTlSexg9dr3Frt4Opm06ZzI2kbP7LvOPQroMsaPy2vllf5r5C//u89m4mfPu1Xf62RhlkfNlXzf1uT1bG7YPF95t/s+k7zAHQTJncSK6sGxkm4k9mcR+I4kPN8TOyVi3btM3iUvXpv2irixf1FP7xjUuGtv8lsXoQVwx+doxFip/pXNyvEpbk+2Yrb/KPMpoYsK8zn2u+tA8R7EDwCMEhe1j5EEL2/hMD+g34b+qKWmHdpIQaPKTzcOXT7u4iiQpo13840VjyS88T3FxL1BdjGky4p6Pa/ZLOPRNbR/65EmHlWO/UNMLl/of6c9zNluPF3QdR4odr/KVcXX0vDGJq4+POhbZdvz77bNYNqh9MnvnCeKG2qr5X/od7Y2NticP7Hzof8uS/40O9DrGJ8slfcR+9fPWlvZbJcjEc2V2VgZ7WPvr96K/nLPsz0Dcq6mNaS6rU7QdU69hfbCfqY1cP9F975f5keZK/cu6y+82pmfRQJM9kUXjqJqn9LeOq/0X92pxfvI8xR5yPk6eK2LL+RzNzky55w2DzsUdl8qvffs614xVur0bo775uWXXtjGc+S2J8cRWYtPc7ywD/T54FjMJbR+MPs5ttu9feb4W/wA8HlDYgpuwH7Z7m1wy++UzvXwZvVSyi8Tg5y0uTGK4CAPpOjpf1j+yeHF9Gohd+PJVu150ofJYSQg4HtiGzebmj5DFcY0+PiaNBWa9vT3x8YP78oy4ijjZEr1b4trtdryPjvfiRpy39PuRbsU6Ot8Kw5o8trCDwSWLNCb62SSoezya58kYOn+OCo0SllvjMdMhIEnyxP4sP80hPvd2ytrys3rAyvkBGW29nxVNNrkPJrJqXMx9Ns7bSOOio3vNjTP7gcftr8e909j7NDllj+Zyi86eem5wc8y50dt0f3Z/LcTdYewSYd59/0rMwO8AeFDYgpvQD1s9zOuL1lz6R8nVAktJGrge8qu1s/HzMVvi3T8Ku0HzZImzXuAj8+T/cbEXtj25rZLubs9b2G9fN39+B5A91FataGB6XLcixeMT0yvt0ONe1krPyLAPuE8fF/p2svnyNcozM+zpWUL+vuiF7WEs7767tdxsr7KwFbqcybNLkPi88/32KcN7hfbjcT6znzUHBewye6wj9wFgBIUtAAAAAAAAAIC7BoUtAAAAAAAAAIC7BoUtAAAAAAAAAIC7BoUtAAAAAAAAAIC7BoUtAAAAAAAAAIC7BoUtAAAAAAAAAIC7BoUtAAAAAAAAAIC7BoUtAAAAAAAAAIC7BoUtAAAAAAAAAIC7BoUtAAAAAAAAAIC7BoUtAAAAAAAAAIC7BoUtAAAAAAAAAIC7BoUtuJrnb746vXyaP/uVL96evvz67el59gwAAAAAAAAAbgAKW3A1T159dfryzWfps1/5q56dXn7xzen1i+xZwtPPT+9CITyf/4BkvhyRc1zns9Prr8+Q/wKmPxg4hORe/MEB/ZDhi89PT4Zniz7iH1JsNlJif/ZTOj/p+M3p3atnQ/uMq/x+btxdC8dZ7seZXQAAAAAAwG1AYQtuABV/B+/arhYoK4Ut9VktFBYLW14j7ZcUttm70KHomzEUW24+WS8bZ7FF4nLhROusFLaVLlMfyhy7XN5u77+wbT6d/9CA5Bp1fXt6yWOzZ0LUpZb1PRfYAAAAAACPFBS24Cb04uqSAs8Wn0eFLT/fxm6FBRVoUrwk87f+rmgs4Dn3AoiKnb0QMQWari3F4ba+LZhW1pkUOVxgHRVxbn37LBaVBauFbWTZhqZPWGtW2ObF5QFt7maTs/EFb49f+3pSqHZdqvUP5ZsX3AAAAAAA4DxQ2IIbQQXgUWFXYIuiWAhsxUUvMrjAKgoCO4cWH76QiGjfdE4a39rMO6izQo3nsfPXpAWkk5/wBVQr4KfFJ8lXFlIjNPdYVCb2Zd3mvo2F+Uqx6nQZ9M+KyyTGknHH0Dxez2lhm8SWL2zD+s0X2/dkh8FnPKaIYwAAAAAAcBEobMF7JRZAjC0OkkKhFXVl4UFkBQaRFWWmrc+dQn3MO7ZmDtJjLGyT9R1SFJXFqYPeEc6L6osxBZd/ZuWS70dbJLS52Pbb67QQFAZ7JUgxvI/zPlZbvNmeVwVxpl8aF++psK3szWNQ2AIAAAAA3BIUtuAqpBgResFWFnl5keiKg6RQGIrYjaFAzgoMIisuqoIjQOu+e/VZUowmerDOuy1mDPoHrE1LVPfU/mSLYC+m1Pug4C79SZhC2MqU+OuosCVsP+v31fHND12Xqew7D1HYvtxkfr0V4oPcVawCAAAAAICLQWELbsBYGHFhYAuMDS54ssLKJvr8/VZQtmJp6//cFhlMKC7iHIZYsDCuwDOFWcAVWPF5NudhsTLaiW2ic7b2WMS5Iit5PczLtvDrME5vi45/5W0osm2vJ7o1++4+ornGdyOXC1PDqOcq5gcPpc5C5VsXcy62xFZdlyzu3JrJD0GKWAUAAAAAAJeDwhbcgLFgY7gg0iKAvy8+fqmF2F5chH7D841YrBTFAhdnoThqxZiMz2W/pBC7HC+DFJQHzApbIivoiiJvL+7Efv71s+01+S7+pWDxUfuvio6K0MqeaWG5iJ2v9Fehc8THRNDHzZEVtol8dk3uY2Ka9wIKWwAAAACAW4LCFtyAorAlTOI/K2zSseeQFra5XL6IyfvshVL28em97TaFmZchFmmuyEpe5zpIm7N5UuRxEf3F29NrM97bR8c525L+/ocPXaaq0MsIslisXb1eGfIXqlmXEAODLgWxX9dneBbsmsVdaWdtQ2ELAAAAAHBzUNiCG5AXhwwn8VrIPGQy3wsMkYWLkqKAyAqVXcadsbCV76t3nm0xxCQFTo63nxRoBxwWthtkE7t+KY8fH4u80Y6Twrb38cRifUabq/3b3hXO+g6EQpNtOZGrEXW2+nR/8Gux1bmFrbPZclwAAAAAAIBVUNiCG5AXVq0gkCJA+lRF4VIxp4wFUis4iTZ/KEAMvgirZZexdu6xSN6Rfm4eLgjbWI+Xy8uwry2vvbzj60qHSCzedvx47tdl3ew5+Shym2OUyRN1quA40Hn2OWv9vKznMdg4K2y5cP3q9HorrlP9lgtbAwpbAAAAAICbg8IW3ICqMIpFrPSjZ0dF2CpSEI/FMrcXxYMtnqxMEVvYRnn9HButiI1tSwWMtx/NfavCdveFkNs98Z+Vm3V76Hds9QcIpZ7qp8kanubX2Q8jdrydmm77mlG//vqCwpbH2uc8h6yd+wcAAAAAAByBwhZcDRd5rSjRAm+WoA9F4U05Kmjk+V5kyeso716I1YXtPkfr09bWwmi1sNXCps0Xi0Apoj7XuQUrTy/KLrapt8FQeD1wYdvkjzbO5qz6Onqh6N9lztbnWNTnfk71pdohysLj6LUpSh2l33XePpexfVYkAwAAAACAJVDYgquQwoCKHF8IZH1TtBC+hLG4iUWDYIsXwRYPprAIY6QQygpbO0aeu6JpVSeSs/8gIJlnASn0jP0vKoy8DVrxOOc2hS37poiZek6xVXxm5R5jQ8ck4wZasWr6eVnEXqxPVoy6H2g0v1iK+ENhCwAAAABwMShswVXQfwVjC5yxiJxwVGC8F2xRZ4ofU7jlhZ4UIFXBtgqNt0XYufYj2ez4XNYCHS+v94KK26Y/oCA7+cL2IWA5DmLE2mvVD03nsfhtzxLdhndmb1iAmh+EZDIBAAAAAIBjUNgCAAAAAAAAALhrUNgCAAAAAAAAALhrUNgCAAAAAAAAALhrUNgCAAAAAAAAALhrUNgCAAAAAAAAALhrUNgCAAAAAAAAALhrUNgCAAAAAAAAALhrUNgCAAAAAAAAALhrUNgCAAAAAAAAALhrUNgCAAAAAAAAALhrUNgCAAAAAAAAALhrUNgCAAAAAAAAALhrUNgCAAAAAAAAALhrUNgCAAAAAAAAALhrUNgCAAAAAAAAALhrUNgCAAAAAAAAALhrUNgCAAAAAAAAALhrUNgCAAAAAAAAALhrUNgCAAAAAAAAALhrUNgCAAAAAAAAALhrUNgCAAAAAAAAALhrUNgCAAAAAAAAALhrUNgCAAAAAAAAALhrUNgCAAAAAAAAALhrUNgCAAAAAAAAALhrUNgCAAAAAAAAALhrUNgCAAAAAAAAALhrUNgCAAAAAAAAALhrUNgCAAAAAAAAALhrUNgCAAAAAAAAALhrUNgCAAAAAAAAALhrUNgCAAAAAAAAALhrUNgCAAAAHwXPTi+/+Ob0+kX27AdOT159dfryzWfpMwDeOy/enr784vPTk+zZr/rs9Prrr04vn2bPAADgYUBh+yih5Km4cJ5+fnpXXlQb9Ly4rDjpmo0tWE3Wnr8ZE76sbarfRwLJ/eXXb0/Pk2dnQ8nF16MdcrvOE2dmmqycB+v5QRJx0fPdq2fJsxUW7ESo7Qf7Jza8dH+AVc73WblvCj9RPJ8bU6vnm0DFQH0uzNev9L92L9wJ5NfSzmSDB7wTOKaC3yZ35QD3Hf1+Xuy8f0i+Mq4KnTrJGdnbV+7GZPz7PWMXz5sDPtwdCcCnCQrbx0p6eVBSNT+o64v28kN++fLmizIkaEnywBfFF5tuN05iWE6TEFeJ8Qos48rlvQL7cpQjs+vKJfrk6TMnX6V3hpchiScbd0li0uJonHsbo3qmxHm475hUil45XvYxnnM71D6MPubxZyddzR71Osxgm73/TGfmxolgFWNZPHokXlIZK5zswWdVvExlkDn2M8bHMOl2boF4rLeBzrPSHyTLrFAaY5Yo9+9MJrXdXNcWmzu9v57V9lkkynktT55+JvIkenFMTu6Ewz1iGOWOMSOctd+zIpB9cLDvA83XU9sOvjExVe2ZznjXVmsdxj2tNdinOgPyuBe/7TY63+ZxnYps/bjfxv0QGffTJXckAGAGCttHTEzS+JKoLqLqEmiHbnlJ7BfCOclDJx7qvI6/ZOwFKhf7ecnAKjJ3svYm5zSRSIgX8lVoMhJlsHYhjuwfL90WD3Eexl6+FdmlHMaJTHnSsnypUz8n3yThZmKBEBOUvC21wwE0pq3Nup6bpLC9Mh12UhvSPslk1X16bryuI4nauy9kXyzRbZIkeUQRB+wP15750RBiL4XtY/qEtcnWcz+cSdTL+FvY/PoqtlnE7+PaqgPNl+7dYs8xdv8U9mrnfZj7+Zt83oti/yLGGOI4OfA7y3e4t/P42uNQnkt8iBzeJ4a4VhZ32bhGakuzZmFrsUXUYRuX9tc4KO1i40R58/nYZqG5WuwYxGY0X4yfIxmuOGNZjtk+UMp+Ilt53qwQzpfeZmJB9vaCnAAABoXtoyK5iGbYAzdevIQ5lOnwHQ747EJI5uHL1l1cdEHPExGiXdIzrrp0ArJevGAkmaiS3Qq5rI51XEKTINbV2He3a0sONl8ll+ORLKN/Vi70ok+4tAmeP0lGSK5o16yNxts21qfNl8XtEJdW1jwhpflHO5wHy3XmePHNph/5L7HR2fHHut92X1gqX/ZnU/1FlzRmkjntWmInS5IIJrEXiT4a5x1x8l54vnEfnq9OYI/tF/YcyRLttmCDFiPthxNZrIi8B/MY2I5FXFyFnn1nE2RZ8XPD24N8qT4zvm/zDfvS7T/jLzO22fbl02RPq76ZT9oz8VsWR7Le+hlU9TdnZDmXsUv6fIPkNX4gm3m9ZP3ls22D7b6qH9v8QEYi9lMfsv6Gc+QUwn5tJHuUY+Ih9g8AnyAobB8VZ1wU4dKxF+/QJ/ZtFBeHXPr7XD5h00vzzfY8u7wN80SvuDSuQBKOoI9ectGm0re+9HYbmCSBKO046cMXodFV/fFc7UNryfq6Vhuv47wNx4Rkt3OQNeB05LmTpKGIiZFRDqJKfnpbtJVF9WR9nA2ztURXu9Y83nbEt+cz7kuRgdun9szGFmj/W+6LHWsz8Uump2PwQyKbxnPcF6MfbSwsrk+0OVrsNB/za3/m7Xtpb4vse1te+7gRHdPzjdYjWdjXfl1ijP2I1V/XOSKJZ5aX11cbJn2ijkdw/8SHt6byT9XeYPkO97a1r2Dn7d93/5EP7J4Vn3g5tM8LjTUT6yxTH9/8Wduc+/PYbB1C5zjUs1H7n6D1Xr+QPsNaLZZtW8ToKjFH+s3YbSm2OR8nJ+/v5EyNlP3Eni0eztXh+jsSAJCBwvZRUVxCGebS4dd82IZLVfu8pAtuS9TSy624iHsSsH1vEz/bvqMXrF4O7iIpL+kxCbkWubj8hbMnE6bvZhenA19gXpb9Yjb2YXttbVYnbdvnU1vYNZP5idw+xpaZ7Z4+08Q6848mYcOFG+OqrVFf2vwOJMng2G0xk93rmclEbTIX2Zn7k040n65P/cWfunZcS21AjHYw/ZZRm6Tjo/0Eka/pViWl2p7ZOkPj6Zb7otFiWuYedRrsRzZ2e6fpcgZufBYfBvZpfh51/9CcKiPrE+xNbdFPGbaf1Xs2nvrxMyfngk26DaL+NNbERbB3Hs8+znwM7kj73u8ItqXz1cNQ2ffIbyyftekEb1/zjPULPtBz5PWrg33H+3KMzW7nMm6VcE+IPnHMHuOlHA7tn/qYdKf5pU9bd5e3xtmmjMeDWE6ZyevlZNRmmYwjydrNt5Utg34elTWbV++oozsSAJCDwvZRkRzuFfFQzi5e10cueXfIF5d1xF9oM/wa83HxYrye/NI+umyJ8cKVxKO6LFu7jouXo+vTXo+6dvvo81Refpb4SC9X6rvbOSRygR5XNOcX28XM49sFHigv/I0k4ZC5k+SG14pzUT/RiezMdqF+b96O4wtaoisJqcyV+99Tx1uyP6bPxpiR9StfqQwzuxLat5bzQtgPm337nhP57VlDNnVnz+C7wkapj9Uerl3WtD6j9p7k0zyZ/TbaXO1TDjLXGCuDDgvs+yd/Lpj1MjkLG3hU/y3OpW/YL2GOVC5e2+otPsl0bntkHvcC9z2U/3oq/1zit3XU7oUNup1m+ve7Uuzd7OplLvbHxnA2lPvczp/vhR3RK41dipO+T6Kcc3t0OB73M8PHY5wjxHJKbZ/0GdvoaM6NtJ/aZptTPvqd2HK2Z/nZFXckAKAEhe2jojhAK+zBqhflcR9zAXCSJAe+XLzJ+AX2S9NfTvOEcfFyPQPRIVxwrOMsaTKJhLGVJDvJZWgTEv1+mNv2odcqQ9R1bh/F+Ch9vrHPUyUXYmuRs/VZ6Ruf7c+tTfek1Ngyo9u36Ke2YNvT92zHTHeRnX5iTjZt/Ud7nhFj3c40d1xT5HXzxL3U2+r1egJtdB04mONS5I8GWXvsfpzikrfEDgTZzvUT2B+mXfYnzSv29a/pd6TFBy97OyE2bn/0aPSxZ49F376vdT48H/ml6ZLsyWpdS/d/l1/iuMdQsGOma4v1oS2xP6PxJLqEeDVM57ghlZ3ydok364uzUDtlNuvtW7+2bnud2oHtGM+FSLE/0jNV918iF+HitfRLPQfpYve5W3tFlx43e8z4eJR5d11DLGfc4ozNyPrRWvqHskj3HgN27/b9FtduulQ6Zf4EAKyCwvZRccaBGZKg9LKKfTb4gG9t9pAvsBfseGFH/AWxkkwez7mOrDdeRNK+6+nlonZNEIytJMlJbKMXPvuoX/453Y9s5+zS3voViU2n8FG/qN33Yv8oR6PJ/Jrlqi5tP/cAya0/xW/6Uf+jmGWbd/vS2qITjWW7kJ605symOp7mevdK/usQsek23/aMPnLv5Y7JV4X6X8d6WQkf171PlK/hxo6wfat+qv+xzJcwtwfrZO03nB9FzAz9BGtH1tm9Y5zYeYj1cb0u4yxOIpmdFevHmc1tP485P8rnLc6j/YN+wY5dV33d4jBfZy6/tVfWT/xT2+ky5vIe0c8Ult2fgSTv0ZnDpDEl81f2ar7e52/+9TKMyNzDvNNYzc/gxh532dr+3Nqp7c46sU0mz0leioVpPB7E8oCXledy8ZbYju02tw8z9GuyRBk1zpsORj8X/9t8V92RAIApKGwfO3opVpdwh/uFyy9cTII5rNPnO+0ia/9W/1XEjr+c+kXIF6nItl9o46VzLTx3chG5drWnT4r00jW24IsrSyasP1Z9w/rbfrre1tbtS98vIHPI+KZDnuQlicLwvPCn8dfwjFlZ3+MTAVpb5qd2lpHW5Bgz/bKY7nKP8TPKMfZJYX29LVgOk+iMiVOhczJXRhWryzF1EcEewb6j/QIqWxaXJe588evvZ4E+H+JujFEe0+No5FAHQ5ur/Xt8vimH+4OQGPGyGv15jmCrCrWRxEy2rsw7s4uQySS4eH8w6v049VsRd+9ebQVI0k60NVgv+yzouD+v/Sl21z7n7AG1c23byTli0VgZ7bbid+lztIboGOKf1mW5dR2r24TMv6KDn9/Zhe0a1j/rvDFjaRzbJMRbXKPrlzxjxvOnw/ocnQEAgAwUto+IPXGJl9F4AbZkrL2WgzkctPbgzpg850tH59/XChfFgMg5PDfr8Fwzma4gvZw3JHlR2/CFFGXUhM/IJWPGuXYf0Wu98KeJxYZbU8dsa+2/Lyj9aM3UdsMFai/cYHPqz3O2dlovu5ztHAFNKAZZOj4+Se72DqpPNpRNHhtPbf6sn1sni+mtTX6aHmMxvq7aItJnWJvb1T7sA2Or+NqhsTTMF6jmOLT9NYz2kHimtkk8NNJY1PZkT4973a/f1ha2tScfRXZzTmwrsThP4gkbj/ucK/GywXZo8lF/EyvcR+YZbTKbX8dk9rXPC93Flgf+m8zB9kh8eFvqGJv6LTkHev/h2UIcd57t/71a92kSb9TW/ipyG0v9BzvK3vf+lbZKN7Z76XOlPBPmMSG0uFLIx1F21X2Yn9qrmNAxK3utlpPa1d48X/Ab673gy7KfrNv0GmLc6ZfJOIml0icAgCNQ2D4W3EEph+zRpeEuRR4fLsjZxbTBl/bwXC5ie8D7ZLK6pAhzsW9rN/lZTu0f1/RzC7b/OfQkxF5EwwUc9VN9qM3IJbb1beNcRRv5IhnX7NLmHHU39nNjg1+tr/n7prO9iL0vxuTJ9h0ZfWBl8/FJfZ3+CW4+Yx9q7zLq70Sx3Qt224gM/bWzQ9EnQfwcbRMI9uMx1r8BN6f1VUdjLpuD+y/IfMH+KO3B+s11Ikq9aXzSHvd6XH94PsTpGKPZeWEhGeexKHFs5/Bzqm/CGuJTi5WTfodvm0Pndf53VPFo1jR7w/U5igt9Pt2T6udsjtK3HZHxaJ/PGONhZ+o31c3bf+9v/ZfPo/bVcaQ/j6HXwc8eE38sg/cp28yNt2ekwjavz1nvkzHeCV5nEk+DDom9rE2ebM95D9BaXLAXti/2tdWJZCtjUqnlN/CcoQ/rMbFdo+xn9pvaZPDNmeePZcn/AIABFLaPgvGCokMzv+j94dkP1+QyY8pkZVyzXfbxYPaJ36yvyMbrtv7mEuzjjEz02ut5+eXQZIoMc7FM9rnawsjVL+PQt0wATJ/B5vp8xa7sx+ll623IcvL3osMun7fjuBY9nyQNMRFwyYPaq+m7kcdqQ2RpfawsJD+vQXpmtigTIpGh1m/sE+ExMxswITbULlN9o791zJK9ot0HLt8fmT0kzjfCDxWG+Wdykb4x5jdGnyQ+m8b6GKO5n3dIn8q24u9Rh2zOqi+T7Emm+7mKqdr+TubE1tKv2gtEiNON7ttOPZ77Jj7ssExHe2XCQVzP/CZjveyxf9fV6SB7ZbbHo40q+TIZxOZ27rg3R5+MqIw9/prMhjLedf7Jfmh9Mtt23avxcV+rD2Mc8TyFjrKPjuKmsNNqzJX9ZF7yB8sR5h/bov/o9WR9tUfvvyovAI8cFLaPFU2OU7JLhA/VcPG6i0kvDzfX3v/wckovv3Apu4RvX88mC/EyoXXHpC4mEJ8mtV0NSRLdbWYvVurn5oqXMvnDvj64tDdYPp3f+0182/w2+JBQ2cZY25MN13+Qf2MaC2Ye7pfpUqyl7XnCpTGdyv4RcNX+aPZo+ucJ72CDzS/TWDXnTIuZhre990fsm+N9NJVjI41Fbb/6fGske3Injy1en/WRce11bv8wZqLve8P4OH0+o50Fl/qN7Vax2ZP9sbeN+32RJmem59K+k3i5eP0HQeKxjLNmO+ubZocNHtdfT/TvfVrc5/tAWDxjjRzHZOv480bwa899RX2zeXfaGUbz8PeX7hEAHhEobMEH5yiZHNFLLT3k46XmL7Tz17pfSl3Dhe6Tkv2yzse3hGJjeskeX9qMSRpvkrCRblau2fxshyqZ2u1QJcV5YjOLzY+fe90fLDf7efcnt90iRq/kbJtyzE6S/I179VNFvceOkPP+aOy580t//UhtiKFWDF8mb0F5FpnzNpHlwyPyzW1x6312ozOWbb4g12q/s/lAdyQAnzgobAEAAAAAAAAA3DUobAEAAAAAAAAA3DUobAEAAAAAAAAA3DUobAEAAAAAAAAA3DUobAEAAAAAAAAA3DUobAEAAAAAAAAA3DUobAEAAAAAAAAA3DUobAEAAAAAAAAA3DUobAEAAAAAAAAA3DUobAEAAAAAAAAA3DUobAEAAAAAAAAA3DUobAEAAAAAAAAA3DUobAEAAAAAALgznrz66vT6Rf4MgMcICltwlzx/883py6/fnp4nz87mxdttrm+Gy4HXePOZaxM+O71O+t8MkueLz09PsmcOkYNkZ5ys9Oyr08untv8OXYa5bgG1TWafh+XAxss2upQb2e8KVtagGH336ln6rGKP62enl18UNk7sy/I8qM2P0Hh/YLuXPP389G4SE5EPdn58clCcFnbPzgHy00KMcDzr2bZ2vk32yw2J+/5w33Fckg7z2BR9z7szxzHrsYv4z5AYuuU5Kj5qvtczcoFz7w0A7gUUto8FU6D4w+0zOWiTZ8QtLx85gG+zBl+aD1rY0gVxRjIVKexdYhOZp7tPWKZyrpn+ifw8j4xhX6RJh168S2sk9CTrEqy8R8mPylkksBIf5xB9fan9DGUhNIktw8oapOe5Cco+7zOONU6EknXiHuNxH7Cw3X06sV0Wf6rr7JxbivPSnxkTHx+dHxftobDWWXOcucdnXCR7o+kw2q6MvdSW4uu+L4rz85LEnuWYxoDupwuh8050/WqzozlrWEeZ+92bt97Gy3tSxy/rHezIyBzHd/bow85R/Dc0lo7XegjG8+KSeBnReZd95uEzMBkrcRn3saz1YewHwIcDhe2jY/Wwo36zC/x8sqRA2s4/fGPSfRWa+DQZ9gTac/T8sNApYBskY/eExrdPk4aOJCAkl5W7Xc7Vmg62S7BxkSQSl1z8ViZPTKDGRGNkt0k9b0Zmz+vtJ/6jBDXKWfP6xYqeBYvJ0ij7VuBu62ZjqW/TmeP+woTsWlhm9ZHY9VxdJ+ceJ9ALZwn3O9p3aqfEP1efH4vrM2fpdKNz9ALyfZrtx8J/VZE0tVU8W0Yk3hIfzViISZl3bu8Wsxwn278t3p+3WJ767IrzI86Z2jC3Hcl6FN9nxz+vP/fTg6DrRnmev1ncew+G+jaNs2x/ZPsIgE8fFLaPjexSTC9KOhTnF/C5yKWeX5TrRYggl+ON5EsKWy+PuTTIVsnFwvK4i/DMBCNe6lPmF5bI8lb6vCDfUl+xc7p2I+pVFbaF/uf6kBjGtaQi0Aq+1SSHbZDMU7Pb8zb2k/65vHP/NVqCmz1rVHY/X39iLpPY5Zw4vRFhf/a9tSDLbsNJ/KTnXwL3O/bb6JNLzo+ExfWZYh/l3PacP4c8fov9ccZ5RORzE7O9KazsvbMpfB/Z1xY7vN4KKucn9u05Pouxv3b+5DE52q7d63RG0+ubxb/G8MxPD4Ho8+H2RI2eewcxxLbkeKlYPEMAuFNQ2D4y0gs7u2wmCcOltAvQHap6ecUERPruh3F8Loc3XT5y0fa+mcy6RtknJM71xRwThJ30Yl7E+yQmHUG/A5qM71593ud5vn3ff9qfrmmItrKQ3Yq4iDaL/rNY+422bsQEqrZ9Rj1vhrX5lfZT+Hmzk8bXEVG3mQ0tmZ4z/Y9k51hO1jli3d7rNBuMfhc/zfQgdl21f5B5pyWy5+03j8wx2r7Fbh3DbPMDXWRvhvOzgvsuJOer/c5kFrtW/zxO4xnYIPuF9sN76hx/7nNXeySTl303lYFochz7L67Nr+38qz7bbCOyxrjb7UuyZ/HY7oHxmejR28PdSYw2ujD+UxmiP40dtP8YT7LuPv9kjg2WZXVPhLO9y9pl2X+tyPrC+nNfL8hlfZ7dIUcxl+6N3feuLwCfEChsHxXFoZYcgNXFfg2S7Pj1+VCPh+8mj7uc9FCPl6cc8OPF5uQeLrvxYonz09zpxbwVOO++eHt6vREvvThGdG0yLtBkfvpMiihqKy+u2eXUntk+9L2334p/9wvXtKeXZaH/0G9MbEZbN6LM49gZw7zsY6tLNd8N7NfisOk/rG3nJnJZVn2U2a+260bhwzkiYy6PPCvXuxDSwZ0XatcYE14XbSP7N1hmb2NnW5533NMD7Efrt5zR9rr2GedHCst5vD7TYnCJBd3P5Lr9H/dHzbBHrN5ljI/7OdLmjXqMeslcc9+R3puNF+NH1qZPjFgfNbZ5Jr7tOula8i5qtLu1b24L2XuZjUx/XmPU/Wbxr3ruMqgdex+Zd/dHfK24eY7mUPtv/fOzbkds5P1JPwTleYyPvA3H9Zqt3T5s450ME1k3jv1AWN8D8GmCwvYRsR+gDTlI5SIdD9DxUrsOewjvrByyeqAbGbNLhXHJw3gRjH3a613f8ULw9mA9wpz5JbLGaP8Nvtgq20wuJ9aF/Gr6UFuQN13TIQnMkPQmcxFR/8xGWVzVdtMEipIh1uO8mJR5538YzWNsdZX9VM4tMe1j+pzah31r7Zrrduyj2n7UPtXR6jONtYb6I7X/7NklaOzF+NFkL7VTl59suetS2XDFthFZ51jP0SfevzxP0K3eB4YlPylDjBWs9juTTMf1/W/2nmsfKf1YnFPCcbz2eaPN0708l7X/biaPpe/FDlX8eZ2SveB8lpwdfZ3WFvsE+/J8xg88Xs6M0UYiz7ttj9Hz6uy5SfyrXDM/RV157uAPaZvE+GAvkae2wYbaqJRNZR99rL43+stafn2m8GMW191+bd0lkjUB+ARAYftY6JeVHvDmcpSDPx56O9OL5QyyS6fJlV2Qgl7sxHAZJJeVvQz1+8MLM1xS9lKzWDtwn35pyYVT69CICcalhMQkZd6HfVEkVsQeE1/xT9m7nclWs4tVX/P4od+ofxwnZD4/z3bDvOxjGy9H811oP4otard20vg6Isqy+2BOFneD/ma/u+/VDrNYYLr9yC7WjoT4i+Vf1LXi9e8Oe9MS961DZJCPkEf5Fm2ZxPWO2IkT+gNb8dmQzG/l5j59Hp078aOD9V9MRtVWmRwjo72u5fr9v6LnxG52/20c+j/Iuu/vuIaJ9dZvEjekX9eX98auV4uTKP++dpC7rZPs392mq7YL0Jw8f9NXfihofSWI/iTP+Ey4WfxP97u3Te+jY/a5JjGykc7RcHvI21TGTfbNIEdD5LExI/ZK5hr0H8c2aI5KRwAeGyhsHwl08PG7SO0A5UPzKKHxl/i1yGUwXrrxkrCXjbSffxnwIe8uppF+EWgy3vQcLwlZ39nBXTrj5Uk6DBcNj8n1H/qy7Zt+ezJRE23hExyx15xdBtWX46U917lCwtiINmMfDv1GOw627nEZY8/rc8QwL/vY2ijxqeMa+20UdhKiLrksbMOFIsqtW7V3u9LrfX3ZazF2IiKfS7adbtFXD4TbcwXaJ/olyhxtO+oU6Hv3OA5HnyT+dbrI88yPji5D8izCfY/8urHa70xye452yOP32MbCpF/Yf1P/JnvVykXf50XYzG/JnuAzKMorc1Cctr49NtXf+x+PUjmcz0ab9jnamClBHpqbdc3mFZ1oXFzPcrP4d32IfX2C+7NNbR+1Z/OX2nDXcWWOgMph+3BMHJ4XWWyofGYsz5XtwWGOcWxjtDkAjxcUto8JPsD1AOVD8yChGS6F65DLdpzPtacXwvmXAV9A9vvYzxIutqWLeaMnIOlzlbldsISuY9uaHvTxtN6v9222SpIkS+pLGlP7bpc9eU5rk61NvHD/1rZwsfb+pk9mp/pCDjqfGYti13OxNrzCfkSwk9Mz9dfI4Robuf2SeDS+bM/bxwnLuGrwWG8Ltm/T70zfXMzqfjY0+8R4jLbN43WH9dX+9vuM0SfZ+WBlyJ8PnGPnxRhb7ncmuT1X93+297a2YPOpz8L+O6cv4eRye8f4v/IH90/8meyjjsZ2j9U3n8sedbFLdtnkcPIexE65ppyvdRz7eVkG6q/MYvVm8a82ae1s9xirma25TfpFvy/PMeDtlc5jMf70z0TXQ5mIoH82thFtLnNOKP0OwP2DwvYxYQ58OTS37/VQH9kuw/5fnYR5LkQux3E+d7Cnl4xeKsNlMM4la7RLQi+Co0M8rBkvifLiPXxu29v3ogu30brJJUX4C9mMCf2Y5kvXTmNq3+1JRXwW5IvzFjJHm4kfyEcjVo/R1g2vs7fHEd4f+xq1n56kid8l9lMGO4k+1Bb/wrJDk5nMbsc0eUfZo/2af3bbi21GX0j7KC+16xocJ7WtbsaQ6B2x+3sWj50qvgb95rFxu/MjwPof2JllTXRb4nY+nNnb6pnvf29fmSucQ2afjOM3wv6L8T/rO/gj2L3Nxfs4zjnbC7Nnhm473XNRdn7d9+NC7GhM9D76OrVbp80r/+5yyzk2rGf25s3i39lL5Qj2brbyY5uMcd5z5ojo2Gb3aNOI2mO08SgD2SuLC5HLxn0uPxFtnu8rwccPAJ8eKGwfE3wY60HJB28shgLhQm+H9fElkCMHdTjAh0tWLqV4cVOf8TLwbemFnbWRHsm4ptP5F3Nx2RtY97YmrzdeZDuyXrTJ/BKNvqQx9Rrl5UZzucs7zEttCxer03dCfQFbnaM9jvD2cmuEmE7jiLnQfo3UTnssz2LlavraYgfWz625t8e2KJfY5+CcyOLkIdDzZ912+76N8Xjov0a15kTnMaavPz+YELsPzhXrXbf/297TOB38JO08jv1Q+Cf6m+aqcLK29e3r3Kej7BNY1mN7xtj0thRZdn2PYkvROB51rajmjesrJlZuE/8yZrCDtZ/6nohz87n1xVebTH6PrsyRxuQQZypf8Gf8q8hjfOg44wOWlWSwftH14njpO547XWYat9ks1UGJ8QXApwYK28eEOcSFeTIql0DrYy4nPrTnYzNkPru+EC+lKGf/qfFwGWwyhL7pYR71jhe7PrcXm+uvDHI2eHydsLDeB2s69FLcn8nFH+XxRH/QmAOZji43ljHMG21pqC7SGvFrPm6X38fhAkHu4ZK3SV5pgyvtRzJYn/c1tzlfGRvGuBjQ2HdraVtqk5lNN5r/tvnErqpjsqfdc9PuGffmgzHsiyNEtqy/8181r9qqWq+yz63Pjw7LudDPkfmnnSfzPcX6Pahfi1i1eyXq2p6Z/TD4IRk/1SXu1fg64xJfLPpZ9CH5I2+3syPqUcc4ozHcxsf7shxXziuxE30mMks8XRX/Vr7hfNVYbs/JDtp/mLvNc+Ecow75Xon9+hwag+M5rOsbH8oco2/yM7zt3WyOva3yQWewCwCfDihsHxN8cOoBzQfveFjHA3E/XM1FV4z9VCAb+EslXPLhAvJ22ukJSnWJJAkYYZMEaZPLbLi8G6k/9sKsTpRG3Bo2XmybuVAbo80KBttFuU3iwesE2x+i443Nq5iW9irRvNJ+zU5d33y/+LmNLD02dM6nzwab2ySn257GJf4hZK2gr/VHt1nzQWYbk1h1ct1ujtpkORa4/6hDjIdRj5n+gWa/EG+Xnx+ZfVfZ/WDjqrSXibHsjFre0+cw6D7GDstenDGVPvJsm0t1IrmbDZbjhTG+Svw052Af8HwLMVWyn0l7W4itGD/V3cO0OG/YueO8O9X+abFyXfw/PnrsJs/WEJ9bX40+2OF9MY0LAO4bFLZgHXMhZRce2DDJ4vJl3cdIYsEX3dUXT5YEPQLYljZJ0OStKPZ8cmft9YHs12KhlDcnLVov4sheHxC1zfzssf7coH1k9mRvS8bSvmv/3dB5+6+t+THst8v8x2eOG/MxnR9arE19svWh/5aMPr5s+0XfT9n0/d3bHfdQsX91Yfs+kTjCPf/wXF/YAgAsKGwBAAAAAAB4z6CwBeC2oLAFAAAAAADgPYPCFoDbgsIWAAAAAAAAAMBdg8IWAAAAAAAAAMBdg8IWAAAAAAAAAMBdg8IWAAAA+P+3c8dITiNhGIY50xabbcId9iwTEHMBkgmJKWJqgskmmyKDKiIOo7VbEmpL3WN7dsbUV36Cp8C23Gope/llAIBowhYAAIBowhYAAIBowhYAAIBowhYAAIBowhYAAIBowhYAAIBowhYAAIBowvbavf86PP78NdzdNj7r+jB8/vZr+L773vdvX4eb5jGvYTzv45cPndf/Dh/vD1+/rPF87Xs13ZOL3g8AAGBP2FJi8PvPh+Fj47Pfbh/GkJ2cHY9TQNdrnKbaV9lDvc9Pw93umCU0Pww378f31tdz8+VHtWa19uq6tn4Mn98v6x+E7dHv7ghdAAB4dcL2SrTD7kT3n6q1tlPS39PK1nc7wdybrJZ9dmKwBHi9lxLLdXjOWnuc7GO0G5vrUF5bhW3vvf2+BC0AAFyMsOVM/bDdBGEJz5cK23kS+wx1DD8VtpuJ8GL7DwPVcdPkdrz+zr0AAABejbC9KufG4TINHR9Xbru7vUTYrrUC+wRPhO1mIrxRX+f499b9WDt7jwAAwFmELeeZfit7+Ynt2j7SW48hH9EL27LXY+t1rhMAAPijhO1Vef7EdjY/kvunw3b7aHBDtU77+GVvy0T6Yfi8O7Y9ZV1d5xT523UX7XUAAICXJGw5wxLGj9/q+DsWtuPn6+g72ebx4HG9x/uHnfajw93HilsT2/Ib2V3E38777U2DW2HbDve9XrwDAAAvS9helTMDcx2GJQofhrt6jXLMsbBdvb/zvya2JUTHdT/eNwK0nLfzWPEmbKdY319Hvd/qHMv3W2Fb3YsGYQsAAK9P2F6VadJ5QmyVwDwI2znq6jXGKLzsfx61uob9OQ6OHz9vTmv3VmFbJrvz69V+t1Pf6Trv99G7+/NL//r2TGwBAOAyhO1VWUXhE9ZhuwRna40p+E4O287xO8fCtny+WrPea+vzAyVsf1ST1urYzX7ncB9fj2tXsVuOn9dpE7YAAPD6hO1VeX7YLo/8vkDYNh/zHZXz9sJ2CsluEJeY7DyCfHDM/tz7Pa+Obex3vg9PT1+re7K+tnpCXIVw6xoAAIDnEbZXZQyweZp4VBW26zVaYdtcYxOw4xS0F4n9sO19bzl3+c+kOmF70mPBvRB/0vQb3XnPq7Cdw3jeZwnaZ50HAADoEbZXpRWlbUuQrT/rh+3RiW2JvqfP3wvb7e9dp6DcO3h/Cd2zp6JnBGfZTzn/+vhqX8XhpFvYAgDAyxO2XEaJ2v5jwrP+xHa2hOOxcP0dn81Ab3jt4JzC/pS9AwAApxO2MDNJBQCASMIWAACAaMIWAACAaMIWAACAaMIWAACAaMIWAACAaMIWAACAaMIWAACAaMIWAACAaMIWAACAaMIWAACAaMIWAACAaMIWAACAaMIWAACAaMIWAACAaMIWAACAaMIWAACAaMIWAACAaMIWAACAaMIWAACAaMIWAACAaMIWAACAaMIWAACAaMIWAACAaMIWAACAaMIWAACAaMIWAACAaMIWAACAaMIWAACAaMIWAACAaMIWAACAaMIWAACAaMIWAACAaMIWAACAaMIWAACAaMIWAACAaMIWAACAaMIWAACAaMIWAACAaMIWAACAaMIWAACAaMIWAACAaG/+evvPAAAAAKnevP373QAAAACphC0AAADRhC0AAADRhC0AAADRhC0AAADRhC0AAADRhC0AAADRhC0AAADRhC0AAADRhC0AAADRhC0AAADRhC0AAADRhC0AAADRhC0AAADRhC0AAADRhC0AAADRhC0AAADRhC0AAADRhC0AAADRhC0AAADRhC0AAADRhC0AAADRhC0AAADRhC0AAADRhC0AAADRhC0AAADRhC0AAADRhC0AAADRhC0AAADRhC0AAADRhC0AAADRhC0AAADRhC0AAADRhC0AAADRhC0AAADRhC0AAADRhC0AAADRhC0AAADRhC0AAADRhC0AAADRhC0AAADRhC0AAADRhC0AAADRhC0AAADRhC0AAADRhC0AAADRhC0AAADRhC0AAADRhC0AAADRhC0AAADRhC0AAADRhC0AAADRhC0AAADRhC0AAADRhC0AAADRhC0AAADRhC0AAADRhC0AAADRhC0AAADRhC0AAADRhC0AAADRhC0AAADRhC0AAADRhC0AAADRhC0AAADRhC0AAADRhC0AAADRhC0AAADRhC0AAADRhC0AAADRhC0AAADRhC0AAADRhC0AAADRhC0AAADRhC0AAADRhC0AAADRhC0AAADRhC0AAADRhC0AAADRhC0AAADRhC0AAADRhC0AAADRhC0AAADRhC0AAADRhC0AAADRhC0AAADRhC0AAADRhC0AAADRhC0AAADRhC0AAADRhC0AAADRhC0AAADRhC0AAADRhC0AAADRhC0AAADRhC0AAADRhC0AAADRhC0AAADRhC0AAADRhC0AAADRhC0AAADRhC0AAADRhC0AAADRhC0AAADRhC0AAADRhC0AAADRhC0AAADRhC0AAADRhC0AAADRhC0AAADRhC0AAADRhC0AAADRhC0AAADRhC0AAADB3g3/AQ4BRqmI2oztAAAAAElFTkSuQmCC;" parent="1" vertex="1">
                    <mxGeometry y="140" width="950" height="687" as="geometry"/>
                </mxCell>
            </root>
        </mxGraphModel>
    </diagram>
</mxfile>